<?xml version="1.0" encoding="UTF-8" standalone="no"?>
<svg
        xmlns:dc="http://purl.org/dc/elements/1.1/"
        xmlns:cc="http://creativecommons.org/ns#"
        xmlns:rdf="http://www.w3.org/1999/02/22-rdf-syntax-ns#"
        xmlns="http://www.w3.org/2000/svg"
        viewBox="0 0 50 50"
        version="1.1"
        id="svg11"
        width="50"
        height="50">
    <metadata
            id="metadata15">
        <rdf:RDF>
            <cc:Work
                    rdf:about="">
                <dc:format>image/svg+xml</dc:format>
                <dc:type
                        rdf:resource="http://purl.org/dc/dcmitype/StillImage"/>
                <dc:title></dc:title>
            </cc:Work>
        </rdf:RDF>
    </metadata>
    <defs
            id="defs4">
        <style
                id="style2">.cls-1{fill:#58595b;}
        </style>
    </defs>
    <g
            id="Your_Icons"
            data-name="Your Icons"
            transform="translate(-19.8,-22.57)">
        <path
                class="cls-1"
                d="m 42.28,38 c 0,-1.77 0.61,-2.41 2.52,-2.41 1.91,0 2.51,0.64 2.51,2.41 0,1.77 -0.59,2.41 -2.51,2.41 -1.92,0 -2.52,-0.62 -2.52,-2.41 z m 0.38,4.43 H 47 v 17.1 h -4.34 z"
                id="path6"
                style="fill:#002c50;fill-opacity:1"/>
        <path
                class="cls-1"
                d="m 44.8,29.07 a 18.5,18.5 0 1 1 -18.5,18.5 18.52,18.52 0 0 1 18.5,-18.5 m 0,-1.5 a 20,20 0 1 0 20,20 20,20 0 0 0 -20,-20 z"
                id="path8"
                style="fill:#002c50;fill-opacity:1"/>
    </g>
</svg>
