<svg height='100px' width='100px'  fill="#000000" xmlns="http://www.w3.org/2000/svg" data-name="Layer 1" viewBox="0 0 512 512" x="0px" y="0px"><title>battery</title><path d="M436,109.781h-1.769V89.168a6,6,0,0,0-6-6H383.784a6,6,0,0,0-6,6v20.613H331.851V65.353a6,6,0,0,0-6-6H185.206a6,6,0,0,0-6,6v44.428h-44.99V89.168a6,6,0,0,0-6-6H83.769a6,6,0,0,0-6,6v20.613H76a26.029,26.029,0,0,0-26,26V202.8a26,26,0,0,0,11.7,21.7V427.769a24.907,24.907,0,0,0,24.879,24.878h338.85A24.907,24.907,0,0,0,450.3,427.769V224.5A26,26,0,0,0,462,202.8V135.781A26.029,26.029,0,0,0,436,109.781ZM389.784,95.168h32.447v14.613H389.784ZM191.206,71.353H319.851v38.428H191.206ZM89.769,95.168h32.447v14.613H89.769ZM62,135.781a14.015,14.015,0,0,1,14-14H436a14.015,14.015,0,0,1,14,14V202.8a14.015,14.015,0,0,1-14,14H76a14.015,14.015,0,0,1-14-14ZM438.3,427.769a12.893,12.893,0,0,1-12.879,12.878H86.575A12.893,12.893,0,0,1,73.7,427.769V228.691c.76.067,1.527.107,2.3.107H436c.777,0,1.544-.04,2.3-.107Z"></path><path d="M114.411,175.185h16.654v17.6a6,6,0,0,0,12,0v-17.6h19.486a6,6,0,0,0,0-12H143.065V144.643a6,6,0,1,0-12,0v18.542H114.411a6,6,0,0,0,0,12Z"></path><path d="M336.234,175.185h48.141a6,6,0,0,0,0-12H336.234a6,6,0,0,0,0,12Z"></path></svg>