<svg height='100px' width='100px'  fill="#000000" xmlns="http://www.w3.org/2000/svg" data-name="Layer 1" viewBox="0 0 512 512" x="0px" y="0px"><title>domestic power</title><path d="M39.531,175.668,93.41,136.442V381.771a6,6,0,0,0,6,6H364.089L367.146,491.2c0,.136.012.273.025.409a14.563,14.563,0,0,0,14.543,13.186H432.9a14.557,14.557,0,0,0,14.547-13.216c.013-.136.022-.272.026-.409L450.938,365.4a21.314,21.314,0,0,0,30.913-19.033V278.623a34.824,34.824,0,0,0-31.164-37.841c-.345-.034-1.261-.127-25.579-.177H425.1a6,6,0,0,0-5.2,3.015l-12.664,22.074-11.968-21.961a6,6,0,0,0-5.269-3.129H367.016a34.865,34.865,0,0,0-34.826,34.822c0,.966.142,68.11.148,70.957a21.3,21.3,0,0,0,21.3,21.3h.007l.237,0a20.753,20.753,0,0,0,9.54-2.443l.311,10.536H105.41V127.706L252.488,20.627,399.567,127.706v33.677a33.8,33.8,0,0,0-27.184,33.1v11.1a33.741,33.741,0,0,0,67.482,0v-11.1a33.792,33.792,0,0,0-28.3-33.3V136.443l53.878,39.225a6,6,0,0,0,7.063-9.7L411.567,121.6V56.089a6,6,0,0,0-2.688-5L364.267,21.564a6,6,0,0,0-9.312,5V80.384L256.02,8.355a6,6,0,0,0-7.063,0L32.469,165.967a6,6,0,1,0,7.062,9.7ZM362.941,345.95a9.556,9.556,0,0,1-9.181,9.729h-.118a9.3,9.3,0,0,1-9.3-9.311c0-.7-.148-69.99-.148-70.943A22.853,22.853,0,0,1,367.019,252.6h19.41l15.4,28.253a6,6,0,0,0,5.2,3.129h.066a6,6,0,0,0,5.2-3.014l16.269-28.358c8.5.022,19.476.067,21.042.121a22.822,22.822,0,0,1,20.272,24.994,5.789,5.789,0,0,0-.03.6V346.37a9.317,9.317,0,0,1-18.627.354l-.008-.452a6,6,0,0,0-6-5.9h-.05a6,6,0,0,0-5.951,6c0,.219,0,.438.01.655l.08,4.863-3.826,138.687a2.6,2.6,0,0,1-2.584,2.219H381.714a2.6,2.6,0,0,1-2.582-2.212l-4.1-138.751-.091-5.972a6,6,0,0,0-6-5.909H368.9A6,6,0,0,0,362.941,345.95Zm64.924-151.47v11.1a21.741,21.741,0,0,1-43.482,0v-11.1a21.765,21.765,0,0,1,21.74-21.741h0A21.766,21.766,0,0,1,427.865,194.48ZM366.955,37.733l32.612,21.581v53.549L366.955,89.12Z"></path><path d="M237.114,328.358A6,6,0,0,0,244,325.342L301.319,215.52A6,6,0,0,0,296,206.744H272.948l21.111-55.165a6,6,0,0,0-5.6-8.144H231a6,6,0,0,0-5.933,5.1l-15,99.045a6,6,0,0,0,5.933,6.9h19.79l-3.107,67.812A6,6,0,0,0,237.114,328.358Zm-14.136-85.879,13.183-87.044h43.573L258.624,210.6a6,6,0,0,0,5.6,8.145H286.1l-40.188,76.993,2.153-46.984a6,6,0,0,0-5.994-6.274Z"></path></svg>