<svg height='100px' width='100px'  fill="#000000" xmlns="http://www.w3.org/2000/svg" xmlns:xlink="http://www.w3.org/1999/xlink" version="1.1" x="0px" y="0px" viewBox="0 0 100 100" enable-background="new 0 0 100 100" xml:space="preserve"><g><rect x="18.5" y="10.6" width="19.4" height="0.9"></rect><rect x="18.5" y="12.3" width="19.4" height="0.9"></rect><rect x="62.4" y="10.6" width="19.4" height="0.9"></rect><rect x="62.4" y="12.3" width="19.4" height="0.9"></rect><rect x="12.5" y="21" width="22.1" height="1"></rect><rect x="12.5" y="23" width="22.1" height="1"></rect><rect x="65.3" y="21" width="22.1" height="1"></rect><rect x="65.3" y="23" width="22.1" height="1"></rect><path d="M63.5,24.1V21h-7v-7.8h4.2v-2.6h-21v2.6h4.2V21h-7v3.1h6.3L31.4,95.8h4.8l14.1-14.1l14.1,14.1h4.3L57.2,24.1H63.5z    M56.5,42.5l-5.2-5.2l3.8-3.8L56.5,42.5z M46,13.2h8.6V21H46V13.2z M54.1,27.5l-3.4-3.4l0,0h2.8L54.1,27.5z M48.1,24.1l-1.7,1.7   l0.3-1.7L48.1,24.1L48.1,24.1z M46,28.8l3.4-3.4l5.2,5.2l0.1,0.8L50,36l-4.5-4.5L46,28.8z M45.2,33.7l3.6,3.6l-5,5L45.2,33.7z    M42.7,48.8l6.1,6.1l-8.5,8.5L42.7,48.8z M35.3,94.2l3.9-23.7l9.9,9.9L35.3,94.2z M64.9,93.6L51.7,80.4l9.5-9.5L64.9,93.6z    M60.8,68.7L50.4,79.1L39.5,68.3l0.3-1.9l10.2-10.2l10.4,10.4L60.8,68.7z M60,63.5l-8.6-8.6l6.2-6.2L60,63.5z M57.2,46.5l-7.1,7.1   l-7-7l0.2-1.2l6.8-6.8l7,7L57.2,46.5z"></path></g></svg>