<?xml version="1.0" encoding="UTF-8" standalone="no"?>
<svg
   xmlns:dc="http://purl.org/dc/elements/1.1/"
   xmlns:cc="http://creativecommons.org/ns#"
   xmlns:rdf="http://www.w3.org/1999/02/22-rdf-syntax-ns#"
   xmlns:svg="http://www.w3.org/2000/svg"
   xmlns="http://www.w3.org/2000/svg"
   id="svg22"
   version="1.1"
   y="0px"
   x="0px"
   viewBox="0 0 512 512"
   data-name="Layer 1"
   fill="#000000"
   width="100px"
   height="100px">
  <metadata
     id="metadata28">
    <rdf:RDF>
      <cc:Work
         rdf:about="">
        <dc:format>image/svg+xml</dc:format>
        <dc:type
           rdf:resource="http://purl.org/dc/dcmitype/StillImage" />
        <dc:title>power antena </dc:title>
      </cc:Work>
    </rdf:RDF>
  </metadata>
  <defs
     id="defs26" />
  <title
     id="title2">power antena </title>
  <path
     id="path4"
     d="M334.292,339.307a6,6,0,0,0-5.77-4.352h-4.554L314.24,262h88.278a6,6,0,0,0,2.705-11.356l-99.175-50.085-8.876-66.57H402.518a6,6,0,0,0,2.705-11.355L287.748,63.306l-5.08-38.1A6,6,0,0,0,276.721,20H235.279a6,6,0,0,0-5.947,5.207l-5.08,38.1L106.777,122.634a6,6,0,0,0,2.7,11.355H214.828l-8.876,66.57-99.175,50.085a6,6,0,0,0,2.7,11.356H197.76l-9.728,72.955h-4.554a6,6,0,0,0-5.77,4.352L136.267,484.351A6,6,0,0,0,142.036,492h20.721a6,6,0,0,0,4.555-2.1L256,386.435,344.688,489.9a6,6,0,0,0,4.555,2.1h20.721a6,6,0,0,0,5.769-7.649ZM377.327,250H312.641l-4.671-35.027Zm-76.793,0H211.466l5.544-41.583L256,188.726l38.99,19.691Zm76.793-128.011H295.572l-5.9-44.269Zm-93.861,0H228.534l6.777-50.825L256,60.716l20.689,10.448ZM240.532,32h30.936l3.3,24.751-16.063-8.112a6,6,0,0,0-5.41,0l-16.063,8.112ZM134.673,121.989,222.33,77.72l-5.9,44.269Zm92.261,12h58.132l8,60.015-34.363-17.355a6,6,0,0,0-5.41,0L218.932,194ZM134.673,250l69.357-35.027L199.359,250Zm75.193,12h92.268l9.728,72.955H224.955c-.023,0-.05,0-.077,0h-24.74ZM160,480H149.99L188,346.955h34.156L248.1,377.216Zm77.967-133.045h36.072L256,368ZM352,480,263.9,377.216l25.939-30.261H324L362.01,480Z" />
</svg>
