<svg height='100px' width='100px'  fill="#000000" xmlns="http://www.w3.org/2000/svg" data-name="Layer 1" viewBox="0 0 512 512" x="0px" y="0px"><title>solar panels</title><path d="M59.41,496.648H257.118a24,24,0,0,0,23.973-23.974V447.221h28.878A23.973,23.973,0,0,0,332.6,415.328L282.271,271.541a24,24,0,0,0-22.628-16.054H64.074A23.974,23.974,0,0,0,41.446,287.38l12.743,36.406H27.957a6,6,0,0,0-6,6V367.53a6,6,0,0,0,6,6h7.48v99.144A24,24,0,0,0,59.41,496.648Zm209.681-23.974a11.987,11.987,0,0,1-11.973,11.974H59.41a11.987,11.987,0,0,1-11.973-11.974V373.53H71.6l20.173,57.637A24,24,0,0,0,114.4,447.221H269.091ZM208.287,325,226.1,375.909H168.721L150.9,325ZM146.7,313l-15.93-45.515h57.382L204.087,313Zm159.382,62.907H238.818L221,325h67.268ZM189.48,435.221l-16.559-47.312H230.3l16.56,47.312Zm-12.713,0H114.4a11.986,11.986,0,0,1-11.3-8.018L89.345,387.909h70.863Zm-20.759-59.312H85.145L67.328,325H138.19Zm163.726,54.267a11.836,11.836,0,0,1-9.765,5.045H259.577l-16.559-47.312h67.268l10.984,31.383A11.838,11.838,0,0,1,319.734,430.176Zm-48.79-154.671L284.068,313H216.8l-15.93-45.515h58.773A11.986,11.986,0,0,1,270.944,275.505ZM54.309,272.532a11.835,11.835,0,0,1,9.765-5.045H118.06L133.99,313H63.128L52.772,283.416A11.838,11.838,0,0,1,54.309,272.532Zm13.09,89H53.728V335.786h4.661ZM33.957,335.786h7.771V361.53H33.957Z"></path><path d="M365.56,174.2a55.988,55.988,0,0,0,68.923-77.15h0A55.988,55.988,0,1,0,365.56,174.2Zm-.609-92.479a44,44,0,0,1,58.722,20.537h0a43.989,43.989,0,1,1-58.722-20.537Z"></path><path d="M345.922,56.049a6,6,0,0,0,10.811-5.208l-8.3-17.231a6,6,0,0,0-10.811,5.208Z"></path><path d="M425.064,212.492a6,6,0,0,0,5.4-8.606l-8.3-17.23a6,6,0,1,0-10.811,5.208l8.3,17.23A6,6,0,0,0,425.064,212.492Z"></path><path d="M451.955,94.638a5.986,5.986,0,0,0,2.6-.6l17.23-8.3a6,6,0,0,0-5.208-10.811l-17.23,8.3a6,6,0,0,0,2.608,11.407Z"></path><path d="M313.532,148.663l-17.231,8.3a6,6,0,1,0,5.208,10.81l17.231-8.3a6,6,0,0,0-5.208-10.811Z"></path><path d="M406.908,55.975a5.994,5.994,0,0,0,7.644-3.683l10.129-28.959a6,6,0,1,0-11.327-3.962l-10.129,28.96A6,6,0,0,0,406.908,55.975Z"></path><path d="M349.07,227.354a6,6,0,0,0,5.663-4.021l10.128-28.959a6,6,0,1,0-11.327-3.962l-10.128,28.959a6,6,0,0,0,5.664,7.983Z"></path><path d="M486.024,150.663l-28.959-10.129a6,6,0,1,0-3.962,11.327l28.959,10.129a6,6,0,1,0,3.962-11.327Z"></path><path d="M282.062,92.042l28.959,10.128a6,6,0,1,0,3.962-11.327L286.024,80.715a6,6,0,0,0-3.962,11.327Z"></path></svg>