<?xml version="1.0" encoding="UTF-8" standalone="no"?>
<svg
   xmlns:dc="http://purl.org/dc/elements/1.1/"
   xmlns:cc="http://creativecommons.org/ns#"
   xmlns:rdf="http://www.w3.org/1999/02/22-rdf-syntax-ns#"
   xmlns:svg="http://www.w3.org/2000/svg"
   xmlns="http://www.w3.org/2000/svg"
   id="svg6"
   xml:space="preserve"
   style="enable-background:new 0 0 60 60;"
   viewBox="0 0 60 60"
   y="0px"
   x="0px"
   version="1.1"
   fill="#000000"
   width="100px"
   height="100px"><metadata
     id="metadata12"><rdf:RDF><cc:Work
         rdf:about=""><dc:format>image/svg+xml</dc:format><dc:type
           rdf:resource="http://purl.org/dc/dcmitype/StillImage" /><dc:title></dc:title></cc:Work></rdf:RDF></metadata><defs
     id="defs10" /><path
     id="path2"
     d="m 11.51272,41.297288 c -0.55,0 -1,0.45 -1,1 v 4.94 c 0,0.55 0.45,1 1,1 h 37.24 c 0.55,0 1,-0.45 1,-1 v -4.94 c 0,-0.55 -0.45,-1 -1,-1 h -1.2 v -21.97 h 1.2 c 0.55,0 1,-0.45 1,-1 v -4.94 c 0,-0.55 -0.45,-1 -1,-1 -21.271659,0 -23.166632,0 -37.24,0 -0.55,0 -1,0.45 -1,1 v 4.94 c 0,0.55 0.45,1 1,1 h 1.2 v 21.97 z m 36.24,4.94 h -35.24 v -2.94 h 1.2 32.84 1.2 z m -35.24,-31.86 h 35.24 v 2.94 h -1.2 -32.84 -1.2 z m 2.2,4.95 h 30.84 v 21.97 h -30.84 z" /><g
     transform="matrix(0.06562561,0,0,0.06562561,4.9284185,22.059443)"
     id="g958"
     style="fill:#000000;stroke:#000000;stroke-width:9.14277172;stroke-miterlimit:4;stroke-dasharray:none;stroke-opacity:1"><path
       style="stroke:#000000;stroke-width:9.14277172;stroke-miterlimit:4;stroke-dasharray:none;stroke-opacity:1"
       d="m 365.56,174.2 a 55.988,55.988 0 0 0 68.923,-77.15 v 0 A 55.988,55.988 0 1 0 365.56,174.2 Z m -0.609,-92.479 a 44,44 0 0 1 58.722,20.537 v 0 A 43.989,43.989 0 1 1 364.951,81.721 Z"
       id="path922" /><path
       style="stroke:#000000;stroke-width:9.14277172;stroke-miterlimit:4;stroke-dasharray:none;stroke-opacity:1"
       d="m 345.922,56.049 a 6.0000205,6.0000205 0 0 0 10.811,-5.208 l -8.3,-17.231 a 6.0000205,6.0000205 0 0 0 -10.811,5.208 z"
       id="path924" /><path
       style="stroke:#000000;stroke-width:9.14277172;stroke-miterlimit:4;stroke-dasharray:none;stroke-opacity:1"
       d="m 425.064,212.492 a 6,6 0 0 0 5.4,-8.606 l -8.3,-17.23 a 6.0000205,6.0000205 0 1 0 -10.811,5.208 l 8.3,17.23 a 6,6 0 0 0 5.411,3.398 z"
       id="path926" /><path
       style="stroke:#000000;stroke-width:9.14277172;stroke-miterlimit:4;stroke-dasharray:none;stroke-opacity:1"
       d="m 451.955,94.638 a 5.986,5.986 0 0 0 2.6,-0.6 l 17.23,-8.3 a 6.0000205,6.0000205 0 0 0 -5.208,-10.811 l -17.23,8.3 a 6,6 0 0 0 2.608,11.407 z"
       id="path928" /><path
       style="stroke:#000000;stroke-width:9.14277172;stroke-miterlimit:4;stroke-dasharray:none;stroke-opacity:1"
       d="m 313.532,148.663 -17.231,8.3 a 6,6 0 1 0 5.208,10.81 l 17.231,-8.3 a 6.0000205,6.0000205 0 0 0 -5.208,-10.811 z"
       id="path930" /><path
       style="stroke:#000000;stroke-width:9.14277172;stroke-miterlimit:4;stroke-dasharray:none;stroke-opacity:1"
       d="m 406.908,55.975 a 5.994,5.994 0 0 0 7.644,-3.683 l 10.129,-28.959 a 6,6 0 1 0 -11.327,-3.962 l -10.129,28.96 a 6,6 0 0 0 3.683,7.644 z"
       id="path932" /><path
       style="stroke:#000000;stroke-width:9.14277172;stroke-miterlimit:4;stroke-dasharray:none;stroke-opacity:1"
       d="m 349.07,227.354 a 6,6 0 0 0 5.663,-4.021 l 10.128,-28.959 a 6,6 0 1 0 -11.327,-3.962 l -10.128,28.959 a 6,6 0 0 0 5.664,7.983 z"
       id="path934" /><path
       style="stroke:#000000;stroke-width:9.14277172;stroke-miterlimit:4;stroke-dasharray:none;stroke-opacity:1"
       d="m 486.024,150.663 -28.959,-10.129 a 6,6 0 1 0 -3.962,11.327 l 28.959,10.129 a 6,6 0 1 0 3.962,-11.327 z"
       id="path936" /><path
       style="stroke:#000000;stroke-width:9.14277172;stroke-miterlimit:4;stroke-dasharray:none;stroke-opacity:1"
       d="m 282.062,92.042 28.959,10.128 a 6,6 0 1 0 3.962,-11.327 L 286.024,80.715 a 6,6 0 0 0 -3.962,11.327 z"
       id="path938" /></g></svg>