<?xml version="1.0" encoding="UTF-8" standalone="no"?>
<svg
   xmlns:dc="http://purl.org/dc/elements/1.1/"
   xmlns:cc="http://creativecommons.org/ns#"
   xmlns:rdf="http://www.w3.org/1999/02/22-rdf-syntax-ns#"
   xmlns:svg="http://www.w3.org/2000/svg"
   xmlns="http://www.w3.org/2000/svg"
   id="svg6"
   xml:space="preserve"
   style="enable-background:new 0 0 60 60;"
   viewBox="0 0 60 60"
   y="0px"
   x="0px"
   version="1.1"
   fill="#000000"
   width="100px"
   height="100px"><metadata
     id="metadata12"><rdf:RDF><cc:Work
         rdf:about=""><dc:format>image/svg+xml</dc:format><dc:type
           rdf:resource="http://purl.org/dc/dcmitype/StillImage" /><dc:title></dc:title></cc:Work></rdf:RDF></metadata><defs
     id="defs10" /><path
     id="path2"
     d="m 18.58,42.06 c -0.55,0 -1,0.45 -1,1 V 48 c 0,0.55 0.45,1 1,1 h 37.24 c 0.55,0 1,-0.45 1,-1 v -4.94 c 0,-0.55 -0.45,-1 -1,-1 h -1.2 V 20.09 h 1.2 c 0.55,0 1,-0.45 1,-1 v -4.94 c 0,-0.55 -0.45,-1 -1,-1 -21.271659,0 -23.166632,0 -37.24,0 -0.55,0 -1,0.45 -1,1 v 4.94 c 0,0.55 0.45,1 1,1 h 1.2 V 42.06 Z M 54.82,47 H 19.58 v -2.94 h 1.2 32.84 1.2 z M 19.58,15.14 h 35.24 v 2.94 h -1.2 -32.84 -1.2 z m 2.2,4.95 H 52.62 V 42.06 H 21.78 Z" /><path
     id="path4"
     d="m 42.59,27.37 h -2.2 l 0.55,-4.39 C 40.98,22.7 40.89,22.41 40.7,22.19 40.51,21.97 40.24,21.85 39.95,21.85 h -3.9 c -0.47,0 -0.87,0.32 -0.98,0.78 l -1.84,8.21 c -0.07,0.3 0,0.61 0.2,0.84 0.19,0.24 0.48,0.38 0.78,0.38 h 1.64 l -0.79,7.1 c -0.05,0.47 0.23,0.91 0.67,1.06 0.11,0.04 0.21,0.05 0.32,0.05 0.34,0 0.67,-0.18 0.86,-0.49 l 6.54,-10.9 c 0.19,-0.31 0.19,-0.69 0.01,-1.01 -0.18,-0.32 -0.51,-0.5 -0.87,-0.5 z m -5.04,7.46 0.41,-3.65 C 37.99,30.9 37.9,30.61 37.71,30.4 37.52,30.19 37.25,30.07 36.96,30.07 h -1.51 l 1.39,-6.21 h 1.97 l -0.55,4.39 c -0.04,0.28 0.05,0.57 0.24,0.79 0.19,0.22 0.46,0.34 0.75,0.34 h 1.56 z" /><path
     id="path822"
     d="m 11.628914,25.229107 -0.543963,0.549002 -0.72025,0.720249 2.729897,2.724859 H 1.832516 v 1.788032 h 11.257043 l -2.724858,2.724859 1.264213,1.264214 4.230835,-4.230835 v 0 l 0.483524,-0.483524 0.171248,-0.171248 -0.166211,-0.171247 -0.483524,-0.478487 v 0 z"
     style="color:#000000;font-style:normal;font-variant:normal;font-weight:normal;font-stretch:normal;font-size:medium;line-height:normal;font-family:sans-serif;font-variant-ligatures:normal;font-variant-position:normal;font-variant-caps:normal;font-variant-numeric:normal;font-variant-alternates:normal;font-feature-settings:normal;text-indent:0;text-align:start;text-decoration:none;text-decoration-line:none;text-decoration-style:solid;text-decoration-color:#000000;letter-spacing:normal;word-spacing:normal;text-transform:none;writing-mode:lr-tb;direction:ltr;text-orientation:mixed;dominant-baseline:auto;baseline-shift:baseline;text-anchor:start;white-space:normal;shape-padding:0;clip-rule:nonzero;display:inline;overflow:visible;visibility:visible;opacity:1;isolation:auto;mix-blend-mode:normal;color-interpolation:sRGB;color-interpolation-filters:linearRGB;solid-color:#000000;solid-opacity:1;vector-effect:none;fill:#000000;fill-opacity:1;fill-rule:nonzero;stroke:none;stroke-width:1.54727697;stroke-linecap:butt;stroke-linejoin:miter;stroke-miterlimit:4;stroke-dasharray:none;stroke-dashoffset:0;stroke-opacity:1;color-rendering:auto;image-rendering:auto;shape-rendering:auto;text-rendering:auto;enable-background:accumulate" /></svg>