<svg height='100px' width='100px'  fill="#000000" xmlns="http://www.w3.org/2000/svg" xmlns:xlink="http://www.w3.org/1999/xlink" version="1.1" x="0px" y="0px" viewBox="0 0 60 60" style="enable-background:new 0 0 60 60;" xml:space="preserve"><path d="M11.38,48.06c-0.55,0-1,0.45-1,1V54c0,0.55,0.45,1,1,1h37.24c0.55,0,1-0.45,1-1v-4.94c0-0.55-0.45-1-1-1h-1.2V26.09h1.2  c0.55,0,1-0.45,1-1v-4.94c0-0.55-0.45-1-1-1h-5.88v-1.69h1.19c0.55,0,1-0.45,1-1s-0.45-1-1-1h-1.19v-2.2h1.19c0.55,0,1-0.45,1-1  s-0.45-1-1-1h-1.19v-2.2h1.19c0.55,0,1-0.45,1-1s-0.45-1-1-1h-1.19V6c0-0.55-0.45-1-1-1s-1,0.45-1,1v1.06h-1.19c-0.55,0-1,0.45-1,1  s0.45,1,1,1h1.19v2.2h-1.19c-0.55,0-1,0.45-1,1s0.45,1,1,1h1.19v2.2h-1.19c-0.55,0-1,0.45-1,1s0.45,1,1,1h1.19v1.69H31v-1.69h1.19  c0.55,0,1-0.45,1-1s-0.45-1-1-1H31v-2.2h1.19c0.55,0,1-0.45,1-1s-0.45-1-1-1H31v-2.2h1.19c0.55,0,1-0.45,1-1s-0.45-1-1-1H31V6  c0-0.55-0.45-1-1-1s-1,0.45-1,1v1.06h-1.19c-0.55,0-1,0.45-1,1s0.45,1,1,1H29v2.2h-1.19c-0.55,0-1,0.45-1,1s0.45,1,1,1H29v2.2h-1.19  c-0.55,0-1,0.45-1,1s0.45,1,1,1H29v1.69h-9.74v-1.69h1.19c0.55,0,1-0.45,1-1s-0.45-1-1-1h-1.19v-2.2h1.19c0.55,0,1-0.45,1-1  s-0.45-1-1-1h-1.19v-2.2h1.19c0.55,0,1-0.45,1-1s-0.45-1-1-1h-1.19V6c0-0.55-0.45-1-1-1s-1,0.45-1,1v1.06h-1.19c-0.55,0-1,0.45-1,1  s0.45,1,1,1h1.19v2.2h-1.19c-0.55,0-1,0.45-1,1s0.45,1,1,1h1.19v2.2h-1.19c-0.55,0-1,0.45-1,1s0.45,1,1,1h1.19v1.69h-5.88  c-0.55,0-1,0.45-1,1v4.94c0,0.55,0.45,1,1,1h1.2v21.97H11.38z M47.62,53H12.38v-2.94h1.2h32.84h1.2V53z M12.38,21.14h35.24v2.94  h-1.2H13.58h-1.2V21.14z M14.58,26.09h30.84v21.97H14.58V26.09z"></path><path d="M34.19,33.37h-2.2l0.55-4.39c0.04-0.28-0.05-0.57-0.24-0.79c-0.19-0.22-0.46-0.34-0.75-0.34h-3.9  c-0.47,0-0.87,0.32-0.98,0.78l-1.84,8.21c-0.07,0.3,0,0.61,0.2,0.84c0.19,0.24,0.48,0.38,0.78,0.38h1.64l-0.79,7.1  c-0.05,0.47,0.23,0.91,0.67,1.06c0.11,0.04,0.21,0.05,0.32,0.05c0.34,0,0.67-0.18,0.86-0.49l6.54-10.9  c0.19-0.31,0.19-0.69,0.01-1.01S34.55,33.37,34.19,33.37z M29.15,40.83l0.41-3.65c0.03-0.28-0.06-0.57-0.25-0.78  c-0.19-0.21-0.46-0.33-0.75-0.33h-1.51l1.39-6.21h1.97l-0.55,4.39c-0.04,0.28,0.05,0.57,0.24,0.79c0.19,0.22,0.46,0.34,0.75,0.34  h1.56L29.15,40.83z"></path></svg>