<svg height='100px' width='100px'  fill="#000000" xmlns="http://www.w3.org/2000/svg" data-name="Layer 1" viewBox="0 0 512 512" x="0px" y="0px"><title>wind mill</title><path d="M123.089,223.675,105.674,400.443a6,6,0,0,0,5.972,6.589h69.606a6,6,0,0,0,5.957-6.719L165.8,222.806l14.557,10.778a158.885,158.885,0,0,0,76.064,30.487l17.862,2.154a6.219,6.219,0,0,0,.719.043,6,6,0,0,0,5.038-9.258l-11.638-18a159.407,159.407,0,0,0-52.053-50.171l-33.723-20.6a39.078,39.078,0,0,0-11.595-21.247l1.765-32.479A158.88,158.88,0,0,0,156.055,34.5l-8.181-16.235a6,6,0,0,0-10.864.316l-8.47,19.56a159.457,159.457,0,0,0-12.833,71.666l2.037,36.77a39.071,39.071,0,0,0-12.3,23.347L73.712,188.8A159.483,159.483,0,0,0,21.6,239.011l-11.638,18A6,6,0,0,0,15,266.268a6.219,6.219,0,0,0,.719-.043l17.862-2.154a158.836,158.836,0,0,0,76.028-30.461Zm-4.823,171.357,17.826-180.939.447-.33a38.977,38.977,0,0,0,16.061-.171l21.885,181.44Zm64.4-212.707,27.486,16.791a147.437,147.437,0,0,1,48.172,46.411l4.689,7.252-5.156-.622a146.9,146.9,0,0,1-70.336-28.2l-21.65-16.031A39.192,39.192,0,0,0,182.666,182.325Zm-54.977-73.173a147.39,147.39,0,0,1,11.862-66.24l3.376-7.8,2.412,4.786a146.872,146.872,0,0,1,15.474,73.958l-1.387,25.511a39.065,39.065,0,0,0-30.073-.175Zm16.483,39.122A27.121,27.121,0,1,1,117.051,175.4,27.152,27.152,0,0,1,144.172,148.274ZM32.143,252.157l-5.156.622,4.689-7.252a147.437,147.437,0,0,1,48.172-46.411L105.924,183.6a39.228,39.228,0,0,0,17.489,24.928l-20.959,15.446A146.875,146.875,0,0,1,32.143,252.157Z"></path><path d="M144.172,193.081A17.686,17.686,0,1,0,126.486,175.4,17.706,17.706,0,0,0,144.172,193.081Zm0-23.372a5.686,5.686,0,1,1-5.686,5.686A5.693,5.693,0,0,1,144.172,169.709Z"></path><path d="M490.4,329.038a159.377,159.377,0,0,0-52.045-50.163l-33.716-20.6a39.073,39.073,0,0,0-11.593-21.244l1.764-32.473a158.863,158.863,0,0,0-16.737-80l-8.18-16.232a6,6,0,0,0-10.864.315L350.563,128.2a159.451,159.451,0,0,0-12.83,71.655l2.037,36.763a39.061,39.061,0,0,0-12.3,23.343l-31.723,18.873a159.479,159.479,0,0,0-52.106,50.2l-11.635,18a6,6,0,0,0,5.757,9.215L255.62,354.1a158.82,158.82,0,0,0,76.017-30.456l13.477-9.932L327.7,490.443a6,6,0,0,0,5.971,6.589h69.595a6,6,0,0,0,5.957-6.719L387.818,312.838l14.554,10.775A158.862,158.862,0,0,0,478.423,354.1l17.859,2.153a6,6,0,0,0,5.757-9.215ZM349.715,199.2a147.383,147.383,0,0,1,11.86-66.229l3.374-7.793,2.411,4.784a146.855,146.855,0,0,1,15.471,73.945l-1.386,25.5a39.054,39.054,0,0,0-30.066-.174Zm16.479,39.115a27.116,27.116,0,1,1-27.115,27.116A27.146,27.146,0,0,1,366.194,238.317Zm-41.712,75.688a146.839,146.839,0,0,1-70.3,28.176l-5.154.622,4.687-7.25a147.424,147.424,0,0,1,48.164-46.4l26.071-15.51a39.222,39.222,0,0,0,17.484,24.922Zm15.811,171.027,17.823-180.907.447-.329a38.982,38.982,0,0,0,16.057-.172L396.5,485.032ZM479.86,342.181a146.874,146.874,0,0,1-70.323-28.194L387.891,297.96a39.186,39.186,0,0,0,16.791-25.6l27.48,16.787a147.4,147.4,0,0,1,48.164,46.4l4.687,7.25Z"></path><path d="M366.194,283.117a17.684,17.684,0,1,0-17.684-17.684A17.7,17.7,0,0,0,366.194,283.117Zm0-23.368a5.684,5.684,0,1,1-5.684,5.684A5.691,5.691,0,0,1,366.194,259.749Z"></path></svg>