<?xml version="1.0" encoding="UTF-8"?><svg id="Ebene_2" xmlns="http://www.w3.org/2000/svg" viewBox="0 0 383.51 132.37"><defs><style>.cls-1{fill:#c8c9cb;}.cls-2{fill:#6e6f70;}.cls-3{fill:#61bb46;}.cls-4{fill:#005bab;}</style></defs><g id="Ebene_1-2"><polygon class="cls-4" points="188.03 49.2 213.35 49.2 213.35 56.88 188.03 56.88 188.03 72.12 215.03 72.12 215.03 80.76 177.71 80.76 177.71 26.52 214.79 26.52 214.79 35.16 188.03 35.16 188.03 49.2"/><path class="cls-4" d="m231.59,42.84l-.36,6.36h.12c1.8-4.8,5.52-6.84,11.88-6.84,6,0,10.08,1.68,12,4.92.96,1.8,1.32,3.48,1.32,7.68v25.8h-9.24v-22.8c0-6.84-1.08-8.28-6.72-8.28-6.24,0-9,2.64-9,8.52v22.56h-9.36v-37.92h9.36Z"/><path class="cls-4" d="m295.79,42.36v-.96c0-5.88-1.68-7.2-9.96-7.2-9.84,0-11.88,1.32-11.88,7.44,0,3.96.96,5.76,3.6,6.48,1.44.48,1.92.48,10.32.96,9.12.6,12.24,1.08,14.76,3,3.36,2.28,4.56,5.4,4.56,12.36s-.96,10.44-3.36,12.72c-3.24,3.24-7.44,4.08-18.72,4.08-9.84,0-13.2-.6-16.68-2.64-2.04-1.2-3.84-3.84-4.32-6.72-.48-2.4-.6-3.96-.72-8.28h10.08c0,4.08.24,5.4,1.08,6.84,1.32,2.16,2.64,2.4,11.04,2.4,6.12,0,7.8-.24,9.36-1.44,1.44-.96,1.92-3.12,1.92-6.84s-.72-5.28-3-6q-1.32-.48-10.32-1.08c-9.24-.6-11.16-.84-13.92-2.16-4.32-2.16-6-6-6-13.56,0-6.36,1.32-10.32,4.2-12.48,3.36-2.52,7.56-3.24,17.64-3.24s14.64,1.08,17.28,4.08c2.16,2.4,3.12,5.64,3.12,10.32v1.92h-10.08Z"/><path class="cls-4" d="m335.63,83.16c-2.76,11.28-6,14.4-15.24,14.4-1.2,0-1.92,0-3.12-.12v-6.72l1.68.12c2.4,0,4.08-.72,4.92-2.16,1.2-1.8,2.16-4.68,2.76-7.92h-4.68l-12.48-37.92h9.84l4.68,16.08,2.4,8.04c.72,2.76,1.44,5.16,2.16,8.04h.24l1.44-6.48c.12-.84.84-4.08,2.16-9.6l3.72-16.08h9.48l-9.96,40.32Z"/><path class="cls-4" d="m373.19,53.16c-.48-4.08-1.08-4.56-7.56-4.56s-7.68.72-7.68,4.56c0,2.4.6,3.6,2.16,4.08.84.24,1.2.36,7.56.6,8.28.36,10.32.84,12.36,2.4,2.28,1.68,3.48,4.68,3.48,8.76s-1.32,7.32-3.6,9.24c-2.64,2.16-6.48,3-14.28,3-10.56,0-14.88-1.68-16.32-6.6-.6-1.68-.6-2.4-.6-5.88h9.36v1.2c0,3.96,1.44,4.8,8.04,4.8s8.28-.96,8.28-4.92c0-3.72-1.2-4.68-5.52-4.8-16.56-.12-19.92-2.04-19.92-11.4s3.6-11.28,17.04-11.28c12.72,0,16.08,2.28,16.08,10.8h-8.88Z"/><rect class="cls-2" x="244.01" y="108.36" width="3.84" height="4.32"/><path class="cls-2" d="m251.57,90h11.04c5.52,0,7.32,1.68,7.32,6.72,0,4.56-.72,5.76-4.08,6.36v.24c2.64.12,3.96,1.68,3.84,4.32v4.92h-4.32v-4.08c0-2.4-.96-3.48-3.36-3.36h-6.12v7.44h-4.32v-22.56Zm10.32,11.4c1.44,0,2.28-.24,2.76-.72.72-.6.96-1.2.96-3.12,0-3.24-.6-3.84-3.36-3.84h-6.36v7.68h6Z"/><polygon class="cls-2" points="277.49 99.48 287.93 99.48 287.93 102.6 277.49 102.6 277.49 108.96 288.65 108.96 288.65 112.56 273.05 112.56 273.05 90 288.53 90 288.53 93.6 277.49 93.6 277.49 99.48"/><polygon class="cls-2" points="301.37 112.56 297.05 112.56 297.05 93.84 290.45 93.84 290.45 90 307.97 90 307.97 93.84 301.37 93.84 301.37 112.56"/><path class="cls-2" d="m177.65,90h3.84v9.12c.72-1.8,2.16-2.52,5.04-2.52,1.92,0,3.48.48,4.32,1.32,1.2,1.2,1.56,2.88,1.56,6.72s-.36,5.04-1.32,6.48c-.96,1.08-2.52,1.68-4.92,1.68-2.64,0-3.96-.72-4.8-2.76h-.12l.24,2.52h-3.84v-22.56Zm3.84,14.16c0,4.8.48,5.64,3.6,5.64,2.88,0,3.48-.84,3.48-5.16s-.6-5.04-3.36-5.04-3.72,1.08-3.72,4.56Z"/><path class="cls-2" d="m204.41,113.64c-1.2,4.68-2.52,6-6.36,6-.48,0-.84,0-1.32-.12v-2.76h.72c1.08,0,1.68-.24,2.04-.84.48-.72.96-1.92,1.2-3.36h-2.04l-5.16-15.72h4.08l2.04,6.6.96,3.36c.36,1.2.6,2.16.96,3.36.24-.84.48-1.8.6-2.64.12-.36.36-1.68.96-4.08l1.56-6.6h3.96l-4.2,16.8Z"/><path class="cls-2" d="m222.53,93.24h-3.72v-3.24h3.72v3.24Zm0,19.32h-3.72v-15.72h3.72v15.72Z"/><path class="cls-2" d="m230.21,96.84l-.12,2.64c.72-2.04,2.28-2.88,4.92-2.88s4.2.72,5.04,2.04c.36.72.48,1.44.48,3.24v10.68h-3.84v-9.48c0-2.88-.48-3.36-2.76-3.36-2.52,0-3.72,1.08-3.72,3.48v9.36h-3.96v-15.72h3.96Z"/><path d="m11.76,58.24c-.11.39-.22.78-.32,1.17.1-.39.21-.78.32-1.17Z"/><path d="m9.69,77.93c.02.26.04.52.06.78-.02-.26-.04-.52-.06-.78Z"/><path d="m9.76,78.7c.01.22.03.43.06.65-.02-.22-.04-.43-.06-.65Z"/><path d="m9.6,71.96c-.02.33-.02.67-.03,1,0-.34.01-.67.03-1Z"/><path d="m10.51,84.44c.04.24.08.47.13.7-.04-.23-.09-.47-.13-.7Z"/><path d="m12.69,92.77c.07.21.15.42.22.63h0c-.07-.21-.15-.42-.22-.63Z"/><path d="m9.65,70.94c-.02.34-.03.69-.04,1.03.01-.34.02-.69.04-1.03Z"/><path d="m11.82,58.03c-.02.07-.04.14-.06.21.02-.07.03-.14.06-.21h0Z"/><path d="m11.35,59.75c-.1.42-.21.84-.3,1.26.1-.42.2-.84.3-1.26Z"/><path d="m9.88,67.99c-.03.25-.05.49-.07.75.02-.25.04-.5.07-.75Z"/><path d="m9.91,80.35c.03.36.08.72.12,1.07-.04-.35-.09-.71-.12-1.07Z"/><path d="m11.05,61.01c-.11.46-.21.92-.3,1.38.1-.46.2-.92.3-1.38Z"/><path d="m10.69,85.4c.07.34.14.67.21,1.01-.07-.34-.15-.67-.21-1.01Z"/><path d="m9.78,69.04c-.03.24-.04.49-.06.74.02-.25.03-.49.06-.74Z"/><path d="m10.73,62.44c-.08.4-.16.81-.23,1.21.07-.4.15-.81.23-1.21Z"/><path d="m10.9,86.4c.17.8.37,1.59.57,2.37-.21-.79-.4-1.57-.57-2.37Z"/><path d="m9.56,74.04c0,.47,0,.93.02,1.39-.01-.46-.02-.93-.02-1.39Z"/><path d="m10.2,65.45c-.06.37-.11.74-.16,1.11.04-.37.1-.74.16-1.11Z"/><path d="m10.08,81.76c.04.28.08.56.12.83-.05-.28-.09-.55-.12-.83Z"/><path d="m10.51,84.44c-.04-.22-.08-.44-.12-.66.03.22.07.44.12.66Z"/><path d="m12.32,91.68c.1.31.2.61.31.92-.11-.3-.21-.61-.31-.92Z"/><path class="cls-1" d="m100.46,26.75c-9.39-6.62-20.81-10.54-33.15-10.54-26.28,0-48.53,17.72-55.49,41.82h0c-.02.07-.04.14-.06.21-.11.39-.22.78-.32,1.17-.03.11-.06.22-.09.34-.11.42-.21.84-.3,1.26-.11.45-.21.92-.3,1.38,0,.02,0,.04-.01.06-.08.4-.16.81-.23,1.21-.11.6-.21,1.2-.3,1.8-.06.37-.11.74-.16,1.11-.06.48-.12.95-.17,1.44-.03.25-.05.5-.07.75-.02.1-.02.2-.03.3-.03.25-.04.49-.06.74-.03.39-.06.78-.07,1.16-.02.34-.03.69-.04,1.03-.02.33-.02.66-.03,1,0,.35-.01.71-.01,1.07,0,.47,0,.93.02,1.39.02.84.06,1.67.11,2.5.02.26.04.52.06.78.02.22.03.43.06.65.03.34.06.67.1,1,.03.36.08.72.12,1.07.02.11.03.22.04.34.03.28.07.56.12.83.05.4.12.79.19,1.18.03.22.07.44.12.66.04.23.08.47.13.7.02.09.03.17.05.26.07.34.14.67.21,1.01.17.8.37,1.58.57,2.37.26.98.54,1.94.85,2.9.1.31.2.62.31.92.02.06.03.11.06.17.07.21.15.42.22.63h0c2.58,7.22,6.55,13.78,11.6,19.35l-7.88,7.88C6.25,107.9,0,91.68,0,74.04,0,33.22,33.29,0,74.03,0c27.66,0,51.86,15.33,64.57,37.93-.51-.48-1.02-.93-1.55-1.38-2.26-1.89-4.77-3.49-7.42-4.78-3.78-1.79-7.76-3.13-11.84-4.02-3.98-.86-8.06-1.27-12.13-1.24-1.72.01-3.44.1-5.16.27-.02-.01-.03-.02-.04-.03Z"/><path class="cls-1" d="m124.95,77.52h23c-.93,19.65-9.57,37.34-22.99,50.08l-14.84-14.84s.04-.04.06-.06c8.53-9.44,13.97-21.69,14.78-35.17Z"/><path class="cls-2" d="m125.75,69.41c.03,1.43-.03,2.93-.19,4.51h-15.28l-10.2-17.68,5.03-8.72c.18.02.37.04.54.07.18.02.36.04.54.07.36.05.72.11,1.07.17.17.03.35.06.52.1.18.03.35.07.53.11.47.1.94.21,1.4.33.19.05.38.1.57.16.61.17,1.2.36,1.78.57.13.04.26.09.39.14.37.14.74.29,1.09.44.17.07.35.15.52.23.19.09.38.18.56.27.3.15.59.3.88.46.15.08.29.16.43.25.13.08.28.16.41.25.06.03.12.07.18.11.15.09.29.18.43.28,1.39.93,2.65,2.01,3.75,3.27.12.13.24.28.36.42.59.71,1.13,1.48,1.62,2.3.08.15.17.29.25.44.56.99,1.03,2.05,1.43,3.19.06.16.11.33.16.49.19.58.35,1.17.49,1.79.03.13.07.27.1.41.04.19.08.38.12.57.12.59.21,1.2.29,1.81.03.2.05.4.07.6l.05.52c.02.19.03.37.04.55,0,.17.02.34.02.52.01.11.02.23.02.34.01.22.02.44.02.66Z"/><path class="cls-2" d="m110.29,77.52h14.66c-.81,13.48-6.25,25.73-14.78,35.17l-10.08-17.49,10.2-17.68Z"/><polygon class="cls-2" points="96.97 58.03 107.17 75.72 96.97 93.4 76.58 93.4 66.38 75.72 76.58 58.03 96.97 58.03"/><polygon class="cls-2" points="96.97 97 107.17 114.69 96.97 132.37 76.58 132.37 66.38 114.69 76.58 97 96.97 97"/><path class="cls-2" d="m72.54,54.64l.92,1.59-10.2,17.68h-20.4l-10.2-17.68,10.2-17.68h20.4l4.51,7.82c-5.68,6.04-9.86,13.6-11.75,22.4,3.48-5.49,9.47-10.4,16.52-14.12Z"/><polygon class="cls-2" points="63.26 77.52 73.46 95.2 63.26 112.89 42.87 112.89 32.67 95.2 42.87 77.52 63.26 77.52"/><path class="cls-3" d="m128.08,35.02c-20.71-9.8-45.55-4.37-60.31,11.34-5.68,6.04-9.86,13.6-11.75,22.4,3.48-5.49,9.47-10.4,16.52-14.12,10.09-5.35,22.36-8.29,32.58-7.13.18.02.37.04.54.07.18.02.36.04.54.07.36.05.72.11,1.07.17.17.03.35.06.52.1.18.03.35.07.53.11.47.1.94.21,1.4.33.19.05.38.1.57.16.61.17,1.2.36,1.78.57.13.04.26.09.39.14.37.14.74.29,1.09.44.17.07.35.15.52.23.19.09.38.18.56.27.3.15.59.3.88.46.15.08.29.16.43.25.13.08.28.16.41.25.06.03.12.07.18.11.14.09.29.18.43.28,1.39.93,2.65,2.01,3.75,3.27.12.14.24.28.36.42.59.71,1.13,1.48,1.62,2.3.08.14.17.29.25.44.56.99,1.03,2.05,1.43,3.19.06.16.11.33.16.49.19.58.35,1.17.49,1.79.03.13.07.27.1.41.04.19.08.38.12.57.12.59.21,1.2.29,1.81.03.2.05.4.07.6.02.17.03.35.05.52.02.19.03.37.04.55,0,.17.02.34.02.52.01.11.02.23.02.34.01.22.02.44.02.66.03,1.43-.03,2.93-.19,4.51h22.23v-5.12c-.84-14.03-6.49-27.38-19.72-33.78Z"/><path class="cls-2" d="m29.55,58.03l10.2,17.68-10.2,17.68H12.91c-.08-.21-.15-.42-.22-.63-.02-.06-.04-.12-.06-.17-.11-.31-.21-.61-.31-.92-.31-.96-.59-1.93-.85-2.9-.21-.78-.4-1.57-.57-2.37-.07-.33-.15-.67-.21-1.01-.02-.09-.03-.17-.05-.26-.04-.23-.09-.46-.13-.7-.04-.22-.08-.44-.12-.66-.07-.39-.13-.79-.19-1.18-.04-.28-.08-.55-.12-.83-.02-.11-.03-.22-.04-.34-.04-.35-.09-.71-.12-1.07-.04-.33-.07-.66-.1-1-.02-.22-.04-.43-.06-.65-.02-.26-.04-.52-.06-.78-.06-.83-.1-1.66-.11-2.5-.01-.47-.02-.93-.02-1.39,0-.36,0-.72.01-1.07,0-.33.01-.67.03-1,.01-.34.02-.69.04-1.03.02-.39.04-.78.07-1.16.02-.25.03-.49.06-.74,0-.1.01-.2.03-.3.02-.25.04-.5.07-.75.05-.48.11-.96.17-1.44.04-.37.1-.74.16-1.11.09-.6.19-1.2.3-1.8.07-.4.15-.81.23-1.21,0-.02.01-.04.01-.06.1-.46.2-.92.3-1.38.1-.42.2-.84.3-1.26.03-.12.06-.23.09-.34.1-.39.21-.78.32-1.17.02-.07.04-.14.06-.21h17.73Z"/></g></svg>