<svg id="Ebene_1" data-name="Ebene 1" xmlns="http://www.w3.org/2000/svg" viewBox="0 0 319.69 135.5">
    <title>theen-logo</title>
    <path d="M319.64,57.29V5.57a1.38,1.38,0,0,0-1.43-1.43h-6.5a1.38,1.38,0,0,0-1.44,1.43V45.34c0,.46-.23.68-.38.68s-.45-.22-.6-.6L291.67,6.56c-.91-2-1.74-2.42-3.33-2.42h-8.16a3,3,0,0,0-3,3V58.8a1.52,1.52,0,0,0,1.52,1.51h6.42a1.46,1.46,0,0,0,1.44-1.51v-38c0-.45.15-.6.38-.6s.45.15.68.6l16.78,36.82c1.21,2.72,2.8,2.72,4.61,2.72h7.64a3,3,0,0,0,3-3ZM142,12.91H128.74V58.8a1.52,1.52,0,0,1-1.51,1.51h-7.49a1.52,1.52,0,0,1-1.51-1.51V12.91H105a1.4,1.4,0,0,1-1.52-1.36v-6A1.46,1.46,0,0,1,105,4.14h37a1.45,1.45,0,0,1,1.51,1.43v6A1.39,1.39,0,0,1,142,12.91Zm41.45,47.4h-6.95A1.58,1.58,0,0,1,175,58.72V33.85c0-6.58-1.14-8.24-6.2-8.24A19.67,19.67,0,0,0,160,28.18V58.72a1.58,1.58,0,0,1-1.52,1.59h-6.95A1.58,1.58,0,0,1,150,58.72V4.29a1.52,1.52,0,0,1,1.51-1.51h6.95A1.52,1.52,0,0,1,160,4.29V19.94c2.87-1.74,6-2.8,11.41-2.8,10.44,0,13.54,7.41,13.54,16.71V58.72a1.58,1.58,0,0,1-1.52,1.59Z"
          style="fill:#005e7c"/>
    <path d="M227.5,58.27V53.43A1.52,1.52,0,0,0,226,51.92H210.56c-4.39,0-6-1.51-6-6.5V35.66h20.49a1.52,1.52,0,0,0,1.51-1.51V28.71a1.52,1.52,0,0,0-1.51-1.51H204.59V19c0-5,1.58-6.5,6-6.5H226A1.52,1.52,0,0,0,227.5,11V6.18c0-1.06-.38-1.44-1.52-1.59a71,71,0,0,0-14.36-1.06c-9.83,0-17.47,2.65-17.47,15.5V45.42c0,12.85,7.64,15.5,17.47,15.5A71,71,0,0,0,226,59.86c1.14-.15,1.52-.53,1.52-1.59Zm41.28,0V53.43a1.52,1.52,0,0,0-1.52-1.51H251.84c-4.38,0-6-1.51-6-6.5V35.66h20.49a1.52,1.52,0,0,0,1.51-1.51V28.71a1.52,1.52,0,0,0-1.51-1.51H245.87V19c0-5,1.59-6.5,6-6.5h15.42A1.52,1.52,0,0,0,268.78,11V6.18c0-1.06-.38-1.44-1.52-1.59A70.89,70.89,0,0,0,252.9,3.53c-9.83,0-17.47,2.65-17.47,15.5V45.42c0,12.85,7.64,15.5,17.47,15.5a70.89,70.89,0,0,0,14.36-1.06c1.14-.15,1.52-.53,1.52-1.59Z"
          style="fill:#a2c613"/>
    <path d="M126.53,109.89V109a.2.2,0,0,0-.2-.22h-3.56c-2,0-2.26-.52-2.26-1.92v-3.09h5.65a.38.38,0,0,0,.37-.37v-.7a.38.38,0,0,0-.37-.37h-5.65V99.72c0-1.4.31-1.91,2.26-1.91h3.56a.21.21,0,0,0,.2-.22v-.92a.27.27,0,0,0-.19-.26c-.77-.08-2.5-.11-3.59-.11-2.58,0-3.92,1-3.92,3.42v7.09c0,2.45,1.34,3.43,3.92,3.43,1.09,0,2.89,0,3.59-.09a.27.27,0,0,0,.19-.26Zm10.78-.15v-6.06c0-2.45-1-3.83-3.2-3.83a5.55,5.55,0,0,0-2.93.85v-.35a.36.36,0,0,0-.35-.37h-.92a.36.36,0,0,0-.35.37v9.39a.37.37,0,0,0,.35.37h.9a.39.39,0,0,0,.37-.37V102a5.75,5.75,0,0,1,2.49-.72c1.4,0,2,.57,2,2.43v6.06a.38.38,0,0,0,.37.37h.88a.37.37,0,0,0,.37-.37Zm11.15-4.58v-1c0-2.62-1.36-4.31-4.05-4.31s-4.09,1.68-4.09,4.31v1.66c0,3.42,2.06,4.42,4.18,4.42a16.79,16.79,0,0,0,3.29-.31c.3-.06.37-.19.37-.43v-.62a.25.25,0,0,0-.29-.26h-.09a25.11,25.11,0,0,1-3.28.2c-1.7,0-2.56-.81-2.56-3v-.26h6.17a.36.36,0,0,0,.35-.4Zm-1.64-.83h-4.88v-.17c0-2,.88-2.89,2.47-2.89s2.41.81,2.41,2.89v.17Zm9.16-3.39v-.76q0-.33-.39-.33a4.38,4.38,0,0,0-2.6.89v-.39a.35.35,0,0,0-.35-.37h-.86a.36.36,0,0,0-.35.37v9.39a.37.37,0,0,0,.35.37h.9a.39.39,0,0,0,.37-.37V102a4.65,4.65,0,0,1,2.54-.78c.26,0,.39-.11.39-.31Zm10.87-.08v-.47a.43.43,0,0,0-.42-.41h-4c-3.17,0-4.09,1.62-4.09,3.26v.15a2.69,2.69,0,0,0,.84,2.13,1.53,1.53,0,0,0-.75,1.33v0a1.5,1.5,0,0,0,.85,1.43l.13.06a3,3,0,0,0-1.16,2.34v.17c0,1.8,1.32,2.92,4.23,2.92s4.2-1.08,4.2-2.85v-.15c0-1.73-1.73-2.25-3.54-2.71l-2.74-.7c-.42-.11-.57-.27-.57-.59a.68.68,0,0,1,.46-.62,5.31,5.31,0,0,0,2.14.37c2.83,0,4.08-1.13,4.08-3.15v-.15a2.61,2.61,0,0,0-.62-1.9l.66-.13c.2,0,.33-.11.33-.35Zm-2,2.53c0,1.1-.49,1.88-2.48,1.88s-2.49-1.07-2.49-1.88v-.15c0-1,.42-2,2.49-2s2.48.86,2.48,2v.15Zm.15,7.55c0,1-.48,1.6-2.58,1.6s-2.65-.64-2.65-1.67v-.17a2.21,2.21,0,0,1,.9-1.88l2.08.53c1.66.43,2.25.72,2.25,1.44v.15Zm6.34-13V96.52a.37.37,0,0,0-.37-.37h-.93a.37.37,0,0,0-.37.37V98a.37.37,0,0,0,.37.37H171a.37.37,0,0,0,.37-.37Zm0,11.75v-9.39A.37.37,0,0,0,171,100h-.89a.37.37,0,0,0-.36.37v9.39a.37.37,0,0,0,.36.37H171a.37.37,0,0,0,.36-.37Zm11.26-4.58v-1c0-2.62-1.36-4.31-4.05-4.31s-4.08,1.68-4.08,4.31v1.66c0,3.42,2.06,4.42,4.18,4.42a16.87,16.87,0,0,0,3.29-.31c.3-.06.37-.19.37-.43v-.62a.26.26,0,0,0-.29-.26h-.1a25,25,0,0,1-3.27.2c-1.7,0-2.57-.81-2.57-3v-.26h6.18c.22,0,.34-.17.34-.4Zm-1.63-.83h-4.89v-.17c0-2,.89-2.89,2.47-2.89s2.42.81,2.42,2.89v.17Zm12.36,5.41v-6.06c0-2.45-1-3.83-3.2-3.83a5.55,5.55,0,0,0-2.93.85v-.35a.36.36,0,0,0-.35-.37h-.92a.35.35,0,0,0-.35.37v9.39a.37.37,0,0,0,.35.37h.9a.39.39,0,0,0,.37-.37V102a5.71,5.71,0,0,1,2.48-.72c1.4,0,2,.57,2,2.43v6.06a.38.38,0,0,0,.37.37H193a.38.38,0,0,0,.37-.37Zm18.36-.17V96.78a.33.33,0,0,0-.33-.35h-1a.34.34,0,0,0-.33.35v10.77s0,0,0,0l0,0L204.33,96.8c-.15-.28-.24-.37-.75-.37h-1a.52.52,0,0,0-.54.51v13c0,.18.15.22.33.22h1a.35.35,0,0,0,.33-.35V99s0,0,0,0,0,0,.05,0l5.7,10.81a.6.6,0,0,0,.59.3h1.14a.54.54,0,0,0,.53-.54Zm11.37-4.41v-1c0-2.62-1.36-4.31-4.05-4.31s-4.09,1.68-4.09,4.31v1.66c0,3.42,2.06,4.42,4.18,4.42a16.9,16.9,0,0,0,3.3-.31c.29-.06.37-.19.37-.43v-.62c0-.19-.15-.26-.3-.26h-.09a25.11,25.11,0,0,1-3.28.2c-1.69,0-2.56-.81-2.56-3v-.26h6.17a.36.36,0,0,0,.35-.4Zm-1.64-.83h-4.88v-.17c0-2,.89-2.89,2.47-2.89s2.41.81,2.41,2.89v.17Zm9.92,5.5v-.64c0-.18-.13-.26-.39-.26h-1c-.74,0-1-.15-1-1.16v-6.43h2a.36.36,0,0,0,.36-.37v-.62a.37.37,0,0,0-.36-.37h-2V98a.29.29,0,0,0-.28-.31h0l-1,.15a.38.38,0,0,0-.33.37V100h-1.79a.33.33,0,0,0-.35.33v.5c0,.2.15.31.35.33l1.79.2v6.43c0,2,.81,2.47,2.5,2.47a10,10,0,0,0,1.2-.09c.24,0,.33-.15.33-.32Zm9.52-.09v-.62a.37.37,0,0,0-.37-.37h-4.86c-.13,0-.15-.06-.15-.15a.29.29,0,0,1,.09-.2l4.85-6.06a1.48,1.48,0,0,0,.42-1v-.44c0-.55-.28-.9-1-.9h-5.41a.37.37,0,0,0-.37.37V101a.36.36,0,0,0,.37.37h4.47c.15,0,.19.06.19.13a.33.33,0,0,1-.08.17l-4.75,5.91a1.7,1.7,0,0,0-.42,1.2v.35a1,1,0,0,0,1.12,1h5.56a.38.38,0,0,0,.37-.37Zm15.67-9.39a.37.37,0,0,0-.35-.37h-1a.34.34,0,0,0-.31.3l-1.53,8.39c0,.23-.09.23-.15.23s-.11-.06-.14-.23l-1.81-7.07a.67.67,0,0,0-.74-.55h-1a.67.67,0,0,0-.73.55l-1.81,7.07c0,.17-.09.23-.15.23s-.11,0-.14-.23l-1.53-8.39a.34.34,0,0,0-.32-.3h-1a.37.37,0,0,0-.35.37v.07l1.79,8.55c.24,1.14.44,1.27,1.54,1.27s1.24-.26,1.51-1.33l1.61-6.26c0-.13,0-.13.09-.13s.05,0,.09.13l1.6,6.26c.3,1.16.55,1.33,1.51,1.33s1.31-.11,1.55-1.27l1.79-8.55v-.07ZM267,105.16v-1c0-2.62-1.36-4.31-4.05-4.31s-4.09,1.68-4.09,4.31v1.66c0,3.42,2.06,4.42,4.18,4.42a16.9,16.9,0,0,0,3.3-.31c.29-.06.37-.19.37-.43v-.62c0-.19-.15-.26-.3-.26h-.09a25,25,0,0,1-3.28.2c-1.69,0-2.56-.81-2.56-3v-.26h6.17a.36.36,0,0,0,.35-.4Zm-1.64-.83h-4.88v-.17c0-2,.89-2.89,2.47-2.89s2.41.81,2.41,2.89v.17Zm9.16-3.39v-.76q0-.33-.39-.33a4.37,4.37,0,0,0-2.59.89v-.39a.36.36,0,0,0-.35-.37h-.87a.36.36,0,0,0-.35.37v9.39a.37.37,0,0,0,.35.37h.9a.38.38,0,0,0,.37-.37V102a4.67,4.67,0,0,1,2.54-.78c.26,0,.39-.11.39-.31Zm9.9,8.93a.25.25,0,0,0-.05-.17l-4.09-4.93,4.05-4.38a.29.29,0,0,0,.09-.21c0-.11-.09-.2-.27-.2h-1.29a.39.39,0,0,0-.37.17l-3.68,4.14V96.63a.38.38,0,0,0-.37-.37h-.88a.37.37,0,0,0-.37.37v13.11a.37.37,0,0,0,.37.37h.88a.38.38,0,0,0,.37-.37v-4.4l3.66,4.53c.15.18.22.24.43.24h1.32c.13,0,.2-.11.2-.24Zm15.73-4.71v-1c0-2.62-1.36-4.31-4-4.31s-4.09,1.68-4.09,4.31v1.66c0,3.42,2.06,4.42,4.18,4.42a16.9,16.9,0,0,0,3.3-.31c.29-.06.37-.19.37-.43v-.62c0-.19-.15-.26-.3-.26h-.09a25,25,0,0,1-3.28.2c-1.69,0-2.56-.81-2.56-3v-.26h6.17a.36.36,0,0,0,.35-.4Zm-1.63-.83h-4.89v-.17c0-2,.89-2.89,2.47-2.89s2.42.81,2.42,2.89v.17Zm6,5.41V108a.35.35,0,0,0-.35-.35h-.89a.35.35,0,0,0-.35.35v1.71a.37.37,0,0,0,.35.37h.89a.36.36,0,0,0,.35-.37Zm12.05-13a.29.29,0,0,0-.31-.31h-1.09a.36.36,0,0,0-.31.27l-3.22,11.74c-.08.25-.17.38-.35.38s-.3-.13-.37-.38l-3.2-11.74a.39.39,0,0,0-.34-.27h-1.06a.32.32,0,0,0-.34.31.22.22,0,0,0,0,.11l3.41,12a2,2,0,0,0,3.76,0l3.39-12a.41.41,0,0,0,0-.11Zm3.08,13V108a.35.35,0,0,0-.35-.35h-.88a.35.35,0,0,0-.35.35v1.71a.37.37,0,0,0,.35.37h.88a.36.36,0,0,0,.35-.37Z"
          style="fill:#005e7c"/>
    <path d="M127.61,75.47v-.81a.32.32,0,0,0-.35-.33h-8.85a.35.35,0,0,0-.37.33v.81c0,.2.17.29.37.29H122V87.64a.36.36,0,0,0,.33.37h1a.35.35,0,0,0,.33-.37V75.76h3.59c.21,0,.35-.11.35-.29ZM138.3,87.64V81.58c0-2.71-1.36-3.83-3.31-3.83a7.79,7.79,0,0,0-2.82.57V74.53a.36.36,0,0,0-.35-.37h-.92a.36.36,0,0,0-.35.37V87.64a.37.37,0,0,0,.35.37h.9a.39.39,0,0,0,.37-.37v-8a7.32,7.32,0,0,1,2.54-.51c1.2,0,2,.57,2,2.41v6.06a.38.38,0,0,0,.37.37h.88a.38.38,0,0,0,.37-.37Zm11.12,0V78.25a.37.37,0,0,0-.35-.37h-.9a.38.38,0,0,0-.36.37V86a5.93,5.93,0,0,1-2.49.72c-1.4,0-2-.57-2-2.43V78.25a.37.37,0,0,0-.37-.37H142a.38.38,0,0,0-.37.37v6.06c0,2.45,1,3.83,3.21,3.83a5.6,5.6,0,0,0,2.93-.85v.35a.35.35,0,0,0,.34.37h.92a.35.35,0,0,0,.35-.37Zm-1.54-11.79V74.36a.41.41,0,0,0-.37-.37h-.72a.41.41,0,0,0-.37.37v1.49a.36.36,0,0,0,.37.35h.72a.36.36,0,0,0,.37-.35Zm-3.23,0V74.36a.4.4,0,0,0-.36-.37h-.72a.41.41,0,0,0-.37.37v1.49a.36.36,0,0,0,.37.35h.72a.36.36,0,0,0,.36-.35Zm12.77,3v-.76q0-.33-.39-.33a4.43,4.43,0,0,0-2.6.88v-.38a.36.36,0,0,0-.35-.37h-.86a.36.36,0,0,0-.35.37v9.39a.37.37,0,0,0,.35.37h.9a.39.39,0,0,0,.37-.37V79.92a4.72,4.72,0,0,1,2.54-.77c.26,0,.39-.11.39-.31Zm4.51-3V74.42a.37.37,0,0,0-.37-.37h-.93a.37.37,0,0,0-.37.37v1.47a.37.37,0,0,0,.37.37h.93a.37.37,0,0,0,.37-.37Zm0,11.75V78.25a.38.38,0,0,0-.37-.37h-.88a.37.37,0,0,0-.37.37v9.39a.37.37,0,0,0,.37.37h.88a.38.38,0,0,0,.37-.37Zm11.29,0V81.58c0-2.45-1-3.83-3.2-3.83a5.55,5.55,0,0,0-2.93.85v-.35a.36.36,0,0,0-.35-.37h-.92a.36.36,0,0,0-.35.37v9.39a.37.37,0,0,0,.35.37h.9a.39.39,0,0,0,.37-.37V79.87a5.75,5.75,0,0,1,2.49-.72c1.4,0,2,.57,2,2.43v6.06a.38.38,0,0,0,.37.37h.89a.37.37,0,0,0,.36-.37Zm11.72-8.88v-.47a.42.42,0,0,0-.42-.41h-4c-3.17,0-4.09,1.62-4.09,3.26v.15a2.69,2.69,0,0,0,.84,2.13,1.53,1.53,0,0,0-.75,1.33v0a1.5,1.5,0,0,0,.85,1.43l.12.06a3,3,0,0,0-1.15,2.34v.16c0,1.81,1.32,2.93,4.23,2.93s4.2-1.08,4.2-2.85v-.15c0-1.73-1.73-2.25-3.54-2.71l-2.74-.7c-.42-.11-.57-.27-.57-.59a.67.67,0,0,1,.46-.62,5.31,5.31,0,0,0,2.14.37c2.83,0,4.08-1.13,4.08-3.15v-.15a2.59,2.59,0,0,0-.62-1.9l.66-.13c.2,0,.33-.11.33-.35Zm-2,2.53c0,1.1-.49,1.88-2.48,1.88S178,82.1,178,81.29v-.15c0-1,.42-2,2.49-2s2.48.86,2.48,2v.15Zm.15,7.55c0,1-.48,1.6-2.58,1.6s-2.65-.64-2.65-1.68V88.6a2.21,2.21,0,0,1,.9-1.88l2.08.53c1.66.43,2.25.72,2.25,1.44v.15Zm12.46-5.79v-1c0-2.62-1.36-4.31-4.05-4.31s-4.09,1.68-4.09,4.31v1.66c0,3.42,2.07,4.42,4.18,4.42a16.14,16.14,0,0,0,3.3-.32c.3,0,.37-.18.37-.42v-.62c0-.19-.15-.26-.3-.26h-.09a25,25,0,0,1-3.28.2c-1.69,0-2.56-.81-2.56-3v-.26h6.17c.22,0,.35-.17.35-.41Zm-1.63-.82H189v-.17c0-2,.89-2.89,2.47-2.89s2.42.81,2.42,2.89v.17Zm9.24-3.39v-.76c0-.22-.12-.33-.38-.33a4.43,4.43,0,0,0-2.6.88v-.38a.36.36,0,0,0-.35-.37H199a.35.35,0,0,0-.35.37v9.39A.37.37,0,0,0,199,88h.9a.39.39,0,0,0,.37-.37V79.92a4.72,4.72,0,0,1,2.54-.77c.26,0,.38-.11.38-.31Zm15.84,9v-.94a.19.19,0,0,0-.2-.22h-3.55c-2,0-2.27-.52-2.27-1.92V81.62h5.65a.37.37,0,0,0,.37-.37v-.7a.37.37,0,0,0-.37-.37H213V77.62c0-1.4.31-1.91,2.27-1.91h3.55a.2.2,0,0,0,.2-.23v-.91a.25.25,0,0,0-.18-.26c-.77-.08-2.51-.11-3.59-.11-2.58,0-3.92,1-3.92,3.42v7.09c0,2.45,1.34,3.43,3.92,3.43,1.08,0,2.89,0,3.59-.1.11,0,.18-.14.18-.25Zm7.67-9v-.76c0-.22-.13-.33-.38-.33a4.43,4.43,0,0,0-2.6.88v-.38a.36.36,0,0,0-.35-.37h-.86a.35.35,0,0,0-.35.37v9.39a.37.37,0,0,0,.35.37h.9a.39.39,0,0,0,.37-.37V79.92a4.72,4.72,0,0,1,2.54-.77c.25,0,.38-.11.38-.31Zm10.51,8.8V81.58c0-2.45-1-3.83-3.2-3.83a5.55,5.55,0,0,0-2.93.85v-.35a.36.36,0,0,0-.35-.37h-.92a.36.36,0,0,0-.35.37v9.39a.37.37,0,0,0,.35.37h.9a.38.38,0,0,0,.37-.37V79.87a5.79,5.79,0,0,1,2.49-.72c1.4,0,2,.57,2,2.43v6.06a.37.37,0,0,0,.36.37h.89a.37.37,0,0,0,.36-.37Zm11.24-4.59v-1c0-2.62-1.36-4.31-4-4.31s-4.09,1.68-4.09,4.31v1.66c0,3.42,2.06,4.42,4.18,4.42a16.14,16.14,0,0,0,3.3-.32c.29,0,.37-.18.37-.42v-.62c0-.19-.15-.26-.3-.26h-.09a25,25,0,0,1-3.28.2c-1.69,0-2.56-.81-2.56-3v-.26h6.17c.22,0,.35-.17.35-.41Zm-1.63-.82H241.9v-.17c0-2,.89-2.89,2.47-2.89s2.42.81,2.42,2.89v.17Zm12.39,5.41V78.25a.37.37,0,0,0-.35-.37h-.9a.39.39,0,0,0-.37.37V86a5.89,5.89,0,0,1-2.49.72c-1.4,0-2-.57-2-2.43V78.25a.38.38,0,0,0-.37-.37h-.89a.37.37,0,0,0-.36.37v6.06c0,2.45,1,3.83,3.2,3.83a5.55,5.55,0,0,0,2.93-.85v.35a.36.36,0,0,0,.35.37h.92a.36.36,0,0,0,.35-.37Zm11.28-4.59v-1c0-2.62-1.36-4.31-4-4.31s-4.09,1.68-4.09,4.31v1.66c0,3.42,2.06,4.42,4.18,4.42a16.14,16.14,0,0,0,3.3-.32c.29,0,.37-.18.37-.42v-.62c0-.19-.15-.26-.3-.26h-.09a25,25,0,0,1-3.28.2c-1.69,0-2.56-.81-2.56-3v-.26h6.17c.22,0,.35-.17.35-.41Zm-1.63-.82h-4.89v-.17c0-2,.89-2.89,2.47-2.89s2.42.81,2.42,2.89v.17Zm9.24-3.39v-.76c0-.22-.13-.33-.38-.33a4.43,4.43,0,0,0-2.6.88v-.38a.36.36,0,0,0-.35-.37h-.86a.35.35,0,0,0-.35.37v9.39a.37.37,0,0,0,.35.37h.9a.39.39,0,0,0,.37-.37V79.92a4.72,4.72,0,0,1,2.54-.77c.25,0,.38-.11.38-.31Zm10.55,4.75V82.26c0-2.89-1.34-4.51-4-4.51a13.08,13.08,0,0,0-2.16.19V74.51a.35.35,0,0,0-.35-.35h-.94a.34.34,0,0,0-.33.35V87.4c0,.26.06.37.39.42a17.13,17.13,0,0,0,3.39.32c2.76,0,4-1.79,4-4.55Zm-1.62,0c0,2-.57,3.13-2.39,3.13-.63,0-1.53,0-2.16-.11V79.3a14.55,14.55,0,0,1,2.16-.13c1.8,0,2.39,1.12,2.39,3.09v1.33Zm11.82,4V81.21c0-2.17-1-3.46-3.59-3.46a15.88,15.88,0,0,0-2.86.24c-.25,0-.38.15-.38.35V79c0,.24.16.3.33.3h.09a25.13,25.13,0,0,1,2.82-.15c1.44,0,2,.54,2,2.08V82h-1.36c-3.28,0-4.44,1-4.44,3v.22a2.68,2.68,0,0,0,3,3,5.7,5.7,0,0,0,2.84-.9v.4a.37.37,0,0,0,.36.37h.85a.38.38,0,0,0,.37-.37Zm-1.62-1.57a5,5,0,0,1-2.49.74c-1.07,0-1.69-.35-1.69-1.67v-.22c0-1.31.59-1.81,2.82-1.81h1.36v3Zm9.6-7.23v-.76q0-.33-.39-.33a4.43,4.43,0,0,0-2.6.88v-.38a.35.35,0,0,0-.35-.37h-.86a.36.36,0,0,0-.35.37v9.39a.37.37,0,0,0,.35.37h.9a.39.39,0,0,0,.37-.37V79.92a4.72,4.72,0,0,1,2.54-.77c.26,0,.39-.11.39-.31Zm10.36,4.21v-1c0-2.62-1.36-4.31-4.05-4.31S309,79.43,309,82.06v1.66c0,3.42,2.06,4.42,4.18,4.42a16,16,0,0,0,3.29-.32c.3,0,.37-.18.37-.42v-.62a.26.26,0,0,0-.29-.26h-.09a25.11,25.11,0,0,1-3.28.2c-1.7,0-2.56-.81-2.56-3v-.26h6.17c.22,0,.35-.17.35-.41Zm-1.64-.82h-4.88v-.17c0-2,.88-2.89,2.47-2.89s2.41.81,2.41,2.89v.17Z"
          style="fill:#005e7c"/>
    <path d="M80.78,53.68a8.06,8.06,0,0,0,7.92-8.2,8.14,8.14,0,0,0-8.2-7.92h0a8.07,8.07,0,0,0,.13,16.13ZM89.3,79.77A16.85,16.85,0,0,0,72.53,63.29h-.3a16.46,16.46,0,0,0-3.46.43L64,57.64A12.67,12.67,0,0,0,62.37,42l4.94-9a16.41,16.41,0,0,0,4.1.54h.3A16.77,16.77,0,0,0,71.42,0h-.29A16.73,16.73,0,0,0,60.45,29.4l-4.87,8.88A13.11,13.11,0,0,0,53.14,38h-.23a12.82,12.82,0,0,0-12.3,10.23L32.72,49A16.85,16.85,0,0,0,17.29,38.67H17a16.78,16.78,0,0,0,.29,33.55h.29A16.79,16.79,0,0,0,34,56.62L41.44,56a12.85,12.85,0,0,0,11.69,7.64h.23a12.69,12.69,0,0,0,4.66-1l3.67,4.63A16.71,16.71,0,0,0,60.74,92l-5.63,9.41c-.29,0-.57,0-.87,0H54a12.79,12.79,0,0,0,.22,25.58h.22a12.76,12.76,0,0,0,7.93-22.61l5-8.3a16.36,16.36,0,0,0,5.16.84h.3A16.79,16.79,0,0,0,89.3,79.77ZM29.78,55.22A12.52,12.52,0,0,1,17.5,67.94h-.22a12.5,12.5,0,0,1-.22-25h.23A12.56,12.56,0,0,1,29.78,55.22Zm34,58.74a9.54,9.54,0,0,1-9.36,9.69h-.17A9.53,9.53,0,1,1,63.77,114ZM58.92,17A12.51,12.51,0,0,1,71.2,4.28h.22a12.5,12.5,0,0,1,.22,25h-.23A12.56,12.56,0,0,1,58.92,17Zm3.75,33.68a9.54,9.54,0,0,1-9.37,9.69h-.17a9.53,9.53,0,1,1,9.54-9.69ZM85,79.84A12.51,12.51,0,0,1,72.74,92.56h-.22a12.5,12.5,0,0,1-.21-25h.22A12.56,12.56,0,0,1,85,79.84ZM44.76,30.27a12.68,12.68,0,0,0,3.59-9.11A12.85,12.85,0,0,0,35.56,8.59h-.22a12.79,12.79,0,0,0,.22,25.58h.23a12.68,12.68,0,0,0,9-3.9ZM16.12,26.45a8.12,8.12,0,0,0-8.2-7.92h0a8.07,8.07,0,0,0,.14,16.13H8.2a8.06,8.06,0,0,0,7.92-8.2ZM1.11,90a8.09,8.09,0,0,0,8.05,7.92h.15a8.06,8.06,0,0,0,7.92-8.2A8.13,8.13,0,0,0,9,81.82H9A8.07,8.07,0,0,0,1.11,90Zm.5,29A16.85,16.85,0,0,0,18.38,135.5h.3A16.77,16.77,0,0,0,18.39,102h-.3A16.79,16.79,0,0,0,1.61,119ZM36.66,97.46h.23a12.79,12.79,0,0,0,12.57-13A12.86,12.86,0,0,0,36.67,71.88h-.23a12.79,12.79,0,0,0,.22,25.58Zm37,11.59A8.11,8.11,0,0,0,81.74,117h.14a8.06,8.06,0,1,0-.28-16.12h0a8.07,8.07,0,0,0-7.92,8.2Z"
          style="fill:#a2c613"/>
    <path d="M81.66,16.6A10.24,10.24,0,1,0,71.6,27,10.24,10.24,0,0,0,81.66,16.6ZM61,50.7a7.82,7.82,0,1,0-7.68,7.94A7.82,7.82,0,0,0,61,50.7ZM27.52,55.26A10.24,10.24,0,1,0,17.46,65.69,10.24,10.24,0,0,0,27.52,55.26Zm18.91,59a7.81,7.81,0,1,0,7.67-8,7.8,7.8,0,0,0-7.67,8Zm15.85-34A10.25,10.25,0,1,0,72.35,69.82,10.24,10.24,0,0,0,62.28,80.24Z"
          style="fill:#005e7c"/>
</svg>