<?xml version="1.0" encoding="UTF-8" standalone="no"?>
<svg
        xmlns:dc="http://purl.org/dc/elements/1.1/"
        xmlns:cc="http://creativecommons.org/ns#"
        xmlns:rdf="http://www.w3.org/1999/02/22-rdf-syntax-ns#"
        xmlns="http://www.w3.org/2000/svg"
        id="svg8"
        version="1.1"
        viewBox="0 0 460.70535 301.06345"
        height="301.06345mm"
        width="460.70535mm">
  <defs
     id="defs2" />
  <metadata
     id="metadata5">
    <rdf:RDF>
      <cc:Work
         rdf:about="">
        <dc:format>image/svg+xml</dc:format>
        <dc:type
           rdf:resource="http://purl.org/dc/dcmitype/StillImage" />
        <dc:title></dc:title>
      </cc:Work>
    </rdf:RDF>
  </metadata>
  <g
     transform="translate(117.54152,71.131862)"
     style="display:none;opacity:0.11100003"
     id="layer1">
    <path
       id="path836-8"
       d="m 34.599532,43.866603 c -7.713542,0 -12.459419,4.332963 -14.503849,8.421822 -2.044429,4.08886 -1.993696,8.090143 -1.993696,8.090143 V 166.01191 c 0,7.71354 4.332962,12.45942 8.421821,14.50386 4.08886,2.04442 8.075724,1.99369 8.075724,1.99369 H 84.84928 l -5.930606,22.11449 H 56.353511 c -4.392732,-0.0841 -4.392732,6.54827 0,6.4642 H 149.2712 c 4.39273,0.0841 4.39273,-6.54827 0,-6.4642 h -21.9054 l -5.91979,-22.11449 h 49.48182 c 0,0 3.99768,0.0509 8.08654,-1.99369 4.08887,-2.04444 8.42544,-6.79032 8.42544,-14.50386 V 60.378568 c 0,0 0.0363,-4.001283 -2.00813,-8.090143 -2.04443,-4.088859 -6.7903,-8.421822 -14.50385,-8.421822 z m 0,6.46418 H 170.92783 c 5.56003,0 7.45071,2.308326 8.72467,4.856253 1.27395,2.547921 1.31951,5.191532 1.31951,5.191532 V 156.06944 H 24.555353 V 60.378568 c 0,0 0.04535,-2.643611 1.319518,-5.191532 1.27396,-2.547927 3.164641,-4.856253 8.724661,-4.856253 z M 24.555353,162.53723 H 180.97201 v 3.47468 c 0,5.56002 -2.30471,7.4507 -4.85264,8.72466 -2.54792,1.27397 -5.19154,1.31952 -5.19154,1.31952 H 34.599532 c 0,0 -2.643612,-0.0454 -5.191533,-1.31952 -2.54792,-1.27396 -4.852646,-3.16464 -4.852646,-8.72466 z m 66.97803,19.97223 h 23.217707 l 5.93061,22.11449 H 85.61359 Z"
       style="color:#000000;font-style:normal;font-variant:normal;font-weight:normal;font-stretch:normal;font-size:medium;line-height:normal;font-family:sans-serif;font-variant-ligatures:normal;font-variant-position:normal;font-variant-caps:normal;font-variant-numeric:normal;font-variant-alternates:normal;font-feature-settings:normal;text-indent:0;text-align:start;text-decoration:none;text-decoration-line:none;text-decoration-style:solid;text-decoration-color:#000000;letter-spacing:normal;word-spacing:normal;text-transform:none;writing-mode:lr-tb;direction:ltr;text-orientation:mixed;dominant-baseline:auto;baseline-shift:baseline;text-anchor:start;white-space:normal;shape-padding:0;clip-rule:nonzero;display:inline;overflow:visible;visibility:visible;opacity:1;isolation:auto;mix-blend-mode:normal;color-interpolation:sRGB;color-interpolation-filters:linearRGB;solid-color:#000000;solid-opacity:1;vector-effect:none;fill:#010101;fill-opacity:1;fill-rule:nonzero;stroke:none;stroke-width:0.9260416;stroke-linecap:round;stroke-linejoin:round;stroke-miterlimit:4;stroke-dasharray:none;stroke-dashoffset:0;stroke-opacity:1;color-rendering:auto;image-rendering:auto;shape-rendering:auto;text-rendering:auto;enable-background:accumulate" />
    <g
       transform="matrix(-1.6913863,0,0,1.8192245,305.61499,-59.568629)"
       id="g980"
       style="fill:#000000;stroke-width:0.15083355">
      <g
         style="stroke-width:0.15083355"
         id="g926">
        <g
           style="stroke-width:0.15083355"
           id="g844">
          <g
             style="stroke-width:0.15083355"
             id="g842">
            <path
               style="fill:#000000;stroke-width:0.15083355"
               d="M 39.363,97 H 14.504 V 21.391 H 39.362 V 97 Z M 18.422,93.066 h 17.01 V 25.311 h -17.01 z"
               id="path840" />
          </g>
        </g>
        <g
           style="stroke-width:0.15083355"
           id="g850">
          <g
             style="stroke-width:0.15083355"
             id="g848">
            <polygon
               style="fill:#000000;stroke-width:0.15083355"
               points="91.845,25.249 28.881,8.727 28.881,95.038 24.964,95.038 24.964,3.639 92.836,21.455 "
               id="polygon846" />
          </g>
        </g>
        <g
           style="stroke-width:0.15083355"
           id="g856">
          <g
             style="stroke-width:0.15083355"
             id="g854">
            <rect
               style="fill:#000000;stroke-width:0.15083355"
               x="90.379997"
               y="23.353001"
               width="3.921"
               height="43.666"
               id="rect852" />
          </g>
        </g>
        <g
           style="stroke-width:0.15083355"
           id="g862">
          <g
             style="stroke-width:0.15083355"
             id="g860">
            <polygon
               style="fill:#000000;stroke-width:0.15083355"
               points="47.628,32.269 50.215,35.238 38.137,45.755 16.464,45.755 16.464,41.825 36.65,41.825 "
               id="polygon858" />
          </g>
        </g>
        <g
           style="stroke-width:0.15083355"
           id="g868">
          <g
             style="stroke-width:0.15083355"
             id="g866">
            <rect
               style="fill:#000000;stroke-width:0.15083355"
               x="16.464001"
               y="52.080002"
               width="20.93"
               height="3.9289999"
               id="rect864" />
          </g>
        </g>
        <g
           style="stroke-width:0.15083355"
           id="g874">
          <g
             style="stroke-width:0.15083355"
             id="g872">
            <rect
               style="fill:#000000;stroke-width:0.15083355"
               x="16.464001"
               y="62.326"
               width="20.93"
               height="3.9289999"
               id="rect870" />
          </g>
        </g>
        <g
           style="stroke-width:0.15083355"
           id="g880">
          <g
             style="stroke-width:0.15083355"
             id="g878">
            <rect
               style="fill:#000000;stroke-width:0.15083355"
               x="16.464001"
               y="82.823997"
               width="20.93"
               height="3.9300001"
               id="rect876" />
          </g>
        </g>
        <g
           style="stroke-width:0.15083355"
           id="g886">
          <g
             style="stroke-width:0.15083355"
             id="g884">
            <rect
               style="fill:#000000;stroke-width:0.15083355"
               x="16.464001"
               y="93.066002"
               width="20.93"
               height="3.934"
               id="rect882" />
          </g>
        </g>
        <g
           style="stroke-width:0.15083355"
           id="g892">
          <g
             style="stroke-width:0.15083355"
             id="g890">
            <rect
               style="fill:#000000;stroke-width:0.15083355"
               x="16.464001"
               y="72.569"
               width="20.93"
               height="3.9289999"
               id="rect888" />
          </g>
        </g>
        <g
           style="stroke-width:0.15083355"
           id="g898">
          <g
             style="stroke-width:0.15083355"
             id="g896">
            <rect
               style="fill:#000000;stroke-width:0.15083355"
               x="2.559"
               y="93.066002"
               width="64.603996"
               height="3.934"
               id="rect894" />
          </g>
        </g>
        <g
           style="stroke-width:0.15083355"
           id="g904">
          <g
             style="stroke-width:0.15083355"
             id="g902">
            <path
               style="fill:#000000;stroke-width:0.15083355"
               d="M 94.301,35.71 H 14.504 V 21.391 H 94.3 V 35.71 Z M 18.422,31.788 H 90.38 V 25.311 H 18.422 Z"
               id="path900" />
          </g>
        </g>
        <g
           style="stroke-width:0.15083355"
           id="g910">
          <g
             style="stroke-width:0.15083355"
             id="g908">
            <rect
               style="fill:#000000;stroke-width:0.15083355"
               x="19.732"
               y="4.7189999"
               transform="matrix(-0.853,-0.522,0.522,-0.853,32.4786,38.6912)"
               width="3.914"
               height="20.105"
               id="rect906" />
          </g>
        </g>
        <g
           style="stroke-width:0.15083355"
           id="g924">
          <g
             style="stroke-width:0.15083355"
             id="g916">
            <g
               style="stroke-width:0.15083355"
               id="g914">
              <path
                 style="fill:#000000;stroke-width:0.15083355"
                 d="m 92.106,81.97 c -0.425,0 -0.852,-0.061 -1.265,-0.168 -3.682,-0.934 -5.168,-5.617 -5.322,-6.149 l -0.282,-0.898 5.538,-7.972 3.221,2.235 -4.405,6.356 c 0.5,1.132 1.361,2.407 2.208,2.628 0.908,0.224 2.209,-0.843 2.866,-1.515 l 2.776,2.784 c -1.785,1.795 -3.575,2.699 -5.335,2.699 z"
                 id="path912" />
            </g>
          </g>
          <g
             style="stroke-width:0.15083355"
             id="g922">
            <g
               style="stroke-width:0.15083355"
               id="g920">
              <rect
                 style="fill:#000000;stroke-width:0.15083355"
                 x="89.32"
                 y="64.393997"
                 width="6.1370001"
                 height="5.0250001"
                 id="rect918" />
            </g>
          </g>
        </g>
      </g>
    </g>
    <g
       transform="matrix(0.0587931,0,0,0.0587931,30.495133,57.99804)"
       id="g995"
       style="fill:#000000;stroke-width:0.87895405">
      <path
         style="stroke-width:0.87895405"
         d="M 256,17 A 239,239 0 0 0 87,425 239.00209,239.00209 0 0 0 425,87 237.439,237.439 0 0 0 256,17 Z m -59.747,289.818 -16.31,17.607 -61.859,-57.306 a 12,12 0 0 1 0,-17.607 l 61.859,-57.306 16.31,17.606 -52.356,48.5 z m 43.661,73.436 -23.4,-5.347 55.569,-243.161 23.4,5.347 z m 154,-113.135 -61.859,57.306 -16.31,-17.607 52.356,-48.5 -52.356,-48.5 16.31,-17.606 61.859,57.306 a 12,12 0 0 1 0,17.607 z"
         id="path984" />
    </g>
    <g
       transform="matrix(0.48793275,0,0,0.48793275,120.74621,100.62421)"
       id="g1011"
       style="fill:#000000;stroke-width:0.54225367">
      <g
         style="stroke-width:0.54225367"
         transform="translate(0,-952.36218)"
         id="g999">
        <path
           d="m 8,958.36215 c -1.1046,0 -2,0.8954 -2,2 v 84.00005 c 0,1.1046 0.8954,2 2,2 h 84 c 1.1046,0 2,-0.8954 2,-2 0,-1.1046 -0.8954,-2 -2,-2 H 10 v -82.00005 c 0,-1.1046 -0.8954,-2 -2,-2 z m 73,17 c -3.8423,0 -7,3.1577 -7,7 0,1.5792 0.5424,3.01129 1.4375,4.1875 l -11.875,16.96875 c -0.5028,-0.1163 -1.0263,-0.1562 -1.5625,-0.1562 -1.9521,0 -3.7256,0.7879 -5,2.0937 l -8.375,-4.875 c 0.2398,-0.70325 0.375,-1.43828 0.375,-2.21875 0,-3.8423 -3.1577,-7 -7,-7 -3.8423,0 -7,3.1577 -7,7 0,1.5792 0.5424,3.01125 1.4375,4.18755 l -11.875,16.9687 c -0.5028,-0.1162 -1.0263,-0.1562 -1.5625,-0.1562 -3.8423,0 -7,3.1577 -7,7 0,3.8423 3.1577,7 7,7 3.8423,0 7,-3.1577 7,-7 0,-1.8747 -0.7525,-3.6135 -1.9688,-4.875 l 11.5938,-16.5625 c 0.7439,0.272 1.5414,0.4375 2.375,0.4375 1.6249,0 3.1195,-0.5889 4.3125,-1.5313 l 8.8437,5.1563 c -0.09,0.4447 -0.1562,0.9053 -0.1562,1.375 0,3.8423 3.1577,7 7,7 3.8423,0 7,-3.1577 7,-7 0,-1.8747 -0.7525,-3.6135 -1.9688,-4.875 L 78.625,988.92465 c 0.7439,0.27203 1.5414,0.4375 2.375,0.4375 3.8423,0 7,-3.1577 7,-7 0,-3.8423 -3.1577,-7 -7,-7 z"
           style="color:#000000;text-indent:0;text-transform:none;direction:ltr;baseline-shift:baseline;display:inline;overflow:visible;visibility:visible;fill:#000000;fill-opacity:1;stroke:none;stroke-width:0.54225367;enable-background:accumulate"
           marker="none"
           visibility="visible"
           display="inline"
           overflow="visible"
           id="path997" />
      </g>
    </g>
    <rect
       y="97.277374"
       x="32.127975"
       height="5.6696429"
       width="30.994047"
       id="rect1013"
       style="opacity:1;fill:#010101;fill-opacity:1;stroke:none;stroke-width:0.92604166;stroke-linecap:round;stroke-linejoin:round;stroke-miterlimit:4;stroke-dasharray:none;stroke-dashoffset:0;stroke-opacity:1;paint-order:normal" />
    <rect
       style="opacity:1;fill:#010101;fill-opacity:1;stroke:none;stroke-width:0.92604166;stroke-linecap:round;stroke-linejoin:round;stroke-miterlimit:4;stroke-dasharray:none;stroke-dashoffset:0;stroke-opacity:1;paint-order:normal"
       id="rect1015"
       width="30.994047"
       height="5.6696429"
       x="36.361313"
       y="104.53451" />
    <rect
       style="opacity:1;fill:#010101;fill-opacity:1;stroke:none;stroke-width:0.92604166;stroke-linecap:round;stroke-linejoin:round;stroke-miterlimit:4;stroke-dasharray:none;stroke-dashoffset:0;stroke-opacity:1;paint-order:normal"
       id="rect1019"
       width="40.065475"
       height="5.6696429"
       x="40.59465"
       y="111.56487" />
    <rect
       y="118.82199"
       x="36.361313"
       height="5.6696429"
       width="30.994047"
       id="rect1021"
       style="opacity:1;fill:#010101;fill-opacity:1;stroke:none;stroke-width:0.92604166;stroke-linecap:round;stroke-linejoin:round;stroke-miterlimit:4;stroke-dasharray:none;stroke-dashoffset:0;stroke-opacity:1;paint-order:normal" />
    <rect
       style="opacity:1;fill:#010101;fill-opacity:1;stroke:none;stroke-width:0.9260416;stroke-linecap:round;stroke-linejoin:round;stroke-miterlimit:4;stroke-dasharray:none;stroke-dashoffset:0;stroke-opacity:1;paint-order:normal"
       id="rect1023"
       width="24.568451"
       height="5.6696429"
       x="36.361313"
       y="125.70116" />
    <rect
       y="132.42909"
       x="39.536316"
       height="5.6696429"
       width="37.041664"
       id="rect1025"
       style="opacity:1;fill:#010101;fill-opacity:1;stroke:none;stroke-width:0.9260416;stroke-linecap:round;stroke-linejoin:round;stroke-miterlimit:4;stroke-dasharray:none;stroke-dashoffset:0;stroke-opacity:1;paint-order:normal" />
    <rect
       style="opacity:1;fill:#010101;fill-opacity:1;stroke:none;stroke-width:0.9260416;stroke-linecap:round;stroke-linejoin:round;stroke-miterlimit:4;stroke-dasharray:none;stroke-dashoffset:0;stroke-opacity:1;paint-order:normal"
       id="rect1027"
       width="47.624996"
       height="5.6696429"
       x="39.536316"
       y="139.68622" />
    <rect
       y="147.09445"
       x="39.536316"
       height="5.6696429"
       width="27.214283"
       id="rect1029"
       style="opacity:1;fill:#010101;fill-opacity:1;stroke:none;stroke-width:0.9260416;stroke-linecap:round;stroke-linejoin:round;stroke-miterlimit:4;stroke-dasharray:none;stroke-dashoffset:0;stroke-opacity:1;paint-order:normal" />
  </g>
  <g
     transform="translate(117.54152,71.131862)"
     id="layer2">
    <g
       id="g1103"
       transform="translate(2.0022869,-16.409943)">
      <path
         transform="matrix(1.4909359,0,0,1.4812109,42.262034,-71.463767)"
         d="m -30.079008,165.08905 0,8.31177 -7.198206,4.15589 -7.198206,-4.15589 0,-8.31177 7.198206,-4.15589 z"
         id="path1087"
         style="opacity:1;fill:#eef3f6;fill-opacity:1;stroke:#eef3f6;stroke-width:1.3458358;stroke-linecap:round;stroke-linejoin:round;stroke-miterlimit:4;stroke-dasharray:none;stroke-dashoffset:0;stroke-opacity:1;paint-order:fill markers stroke" />
      <path
         style="opacity:1;fill:#eef3f6;fill-opacity:1;stroke:#eef3f6;stroke-width:1.3458358;stroke-linecap:round;stroke-linejoin:round;stroke-miterlimit:4;stroke-dasharray:none;stroke-dashoffset:0;stroke-opacity:1;paint-order:fill markers stroke"
         id="path1089"
         d="m -30.079008,165.08905 0,8.31177 -7.198206,4.15589 -7.198206,-4.15589 0,-8.31177 7.198206,-4.15589 z"
         transform="matrix(1.4909359,0,0,1.4812109,69.546999,-71.463767)" />
      <path
         style="opacity:1;fill:#eef3f6;fill-opacity:1;stroke:#eef3f6;stroke-width:1.3458358;stroke-linecap:round;stroke-linejoin:round;stroke-miterlimit:4;stroke-dasharray:none;stroke-dashoffset:0;stroke-opacity:1;paint-order:fill markers stroke"
         id="path1091"
         d="m -30.079008,165.08905 0,8.31177 -7.198206,4.15589 -7.198206,-4.15589 0,-8.31177 7.198206,-4.15589 z"
         transform="matrix(1.4909359,0,0,1.4812109,56.020373,-47.651249)" />
      <path
         transform="matrix(1.4909359,0,0,1.4812109,9.2430337,-106.09536)"
         d="m -30.079008,165.08905 0,8.31177 -7.198206,4.15589 -7.198206,-4.15589 0,-8.31177 7.198206,-4.15589 z"
         id="path1093"
         style="opacity:1;fill:#eef3f6;fill-opacity:1;stroke:#eef3f6;stroke-width:1.3458358;stroke-linecap:round;stroke-linejoin:round;stroke-miterlimit:4;stroke-dasharray:none;stroke-dashoffset:0;stroke-opacity:1;paint-order:fill markers stroke" />
      <path
         transform="matrix(1.4909359,0,0,1.4812109,-32.230528,-68.418461)"
         d="m -30.079008,165.08905 0,8.31177 -7.198206,4.15589 -7.198206,-4.15589 0,-8.31177 7.198206,-4.15589 z"
         id="path1095"
         style="opacity:1;fill:#eef3f6;fill-opacity:1;stroke:#eef3f6;stroke-width:1.3458358;stroke-linecap:round;stroke-linejoin:round;stroke-miterlimit:4;stroke-dasharray:none;stroke-dashoffset:0;stroke-opacity:1;paint-order:fill markers stroke" />
      <path
         style="opacity:1;fill:#eef3f6;fill-opacity:1;stroke:#eef3f6;stroke-width:1.3458358;stroke-linecap:round;stroke-linejoin:round;stroke-miterlimit:4;stroke-dasharray:none;stroke-dashoffset:0;stroke-opacity:1;paint-order:fill markers stroke"
         id="path1097"
         d="m -30.079008,165.08905 0,8.31177 -7.198206,4.15589 -7.198206,-4.15589 0,-8.31177 7.198206,-4.15589 z"
         transform="matrix(1.4909359,0,0,1.4812109,28.801163,-47.651249)" />
      <path
         style="opacity:1;fill:#eef3f6;fill-opacity:1;stroke:#eef3f6;stroke-width:1.3458358;stroke-linecap:round;stroke-linejoin:round;stroke-miterlimit:4;stroke-dasharray:none;stroke-dashoffset:0;stroke-opacity:1;paint-order:fill markers stroke"
         id="path1105"
         d="m -30.079008,165.08905 0,8.31177 -7.198206,4.15589 -7.198206,-4.15589 0,-8.31177 7.198206,-4.15589 z"
         transform="matrix(1.4909359,0,0,1.4812109,268.83319,-81.174705)" />
      <path
         transform="matrix(1.4909359,0,0,1.4812109,351.90204,-128.93929)"
         d="m -30.079008,165.08905 0,8.31177 -7.198206,4.15589 -7.198206,-4.15589 0,-8.31177 7.198206,-4.15589 z"
         id="path1107"
         style="opacity:1;fill:#eef3f6;fill-opacity:1;stroke:#eef3f6;stroke-width:1.3458358;stroke-linecap:round;stroke-linejoin:round;stroke-miterlimit:4;stroke-dasharray:none;stroke-dashoffset:0;stroke-opacity:1;paint-order:fill markers stroke" />
    </g>
    <rect
       ry="19.402206"
       y="-22.522547"
       x="10.565557"
       height="170.2711"
       width="205.73029"
       id="rect1198"
       style="opacity:1;fill:#ffffff;fill-opacity:1;stroke:#000000;stroke-width:2.50324678;stroke-linecap:round;stroke-linejoin:round;stroke-miterlimit:4;stroke-dasharray:none;stroke-dashoffset:0;stroke-opacity:1;paint-order:normal" />
    <path
       id="path1200"
       d="M 9.5739243,120.51919 H 216.01496"
       style="fill:none;stroke:#000000;stroke-width:2.50324678;stroke-linecap:butt;stroke-linejoin:miter;stroke-miterlimit:4;stroke-dasharray:none;stroke-opacity:1" />
    <circle
       r="5.3523326"
       cy="133.69194"
       cx="112.93571"
       id="path1202"
       style="opacity:1;fill:#bed2e0;fill-opacity:1;stroke:#000000;stroke-width:2.50324678;stroke-linecap:round;stroke-linejoin:round;stroke-miterlimit:4;stroke-dasharray:none;stroke-dashoffset:0;stroke-opacity:1;paint-order:normal" />
    <rect
       style="opacity:1;fill:#eef3f6;fill-opacity:1;stroke:none;stroke-width:2.50324655;stroke-linecap:round;stroke-linejoin:round;stroke-miterlimit:4;stroke-dasharray:none;stroke-dashoffset:0;stroke-opacity:1;paint-order:normal"
       id="rect1204"
       width="190.04605"
       height="127.01836"
       x="17.951878"
       y="-14.46715"
       ry="14.473601" />
    <path
       id="rect1032"
       d="M 151.71085,-14.042989 78.376723,112.97576 H 193.13285 c 8.01838,0 14.47331,-6.45558 14.47331,-14.473947 V 0.43097263 c 0,-8.01837443 -6.45493,-14.47396163 -14.47331,-14.47396163 z"
       style="opacity:1;fill:#e5eef3;fill-opacity:1;stroke:none;stroke-width:2.50324655;stroke-linecap:round;stroke-linejoin:round;stroke-miterlimit:4;stroke-dasharray:none;stroke-dashoffset:0;stroke-opacity:1;paint-order:normal" />
    <path
       id="path936"
       d="M 54.387779,182.87317 H 171.46994"
       style="fill:none;stroke:#000000;stroke-width:2.50324678;stroke-linecap:round;stroke-linejoin:miter;stroke-miterlimit:4;stroke-dasharray:none;stroke-opacity:1" />
    <path
       id="path938"
       d="M 85.141797,183.60756 94.88665,147.23901"
       style="fill:none;stroke:#000000;stroke-width:2.50324678;stroke-linecap:butt;stroke-linejoin:miter;stroke-miterlimit:4;stroke-dasharray:none;stroke-opacity:1" />
    <path
       style="fill:none;stroke:#000000;stroke-width:2.50324678;stroke-linecap:butt;stroke-linejoin:miter;stroke-miterlimit:4;stroke-dasharray:none;stroke-opacity:1"
       d="m 140.58664,183.60756 -9.74493,-36.36855"
       id="path940" />
    <rect
       ry="14.473601"
       y="-14.467136"
       x="17.951874"
       height="127.01836"
       width="190.04605"
       id="rect1041"
       style="opacity:1;fill:none;fill-opacity:1;stroke:#000000;stroke-width:2.50324655;stroke-linecap:round;stroke-linejoin:round;stroke-miterlimit:4;stroke-dasharray:none;stroke-dashoffset:0;stroke-opacity:1;paint-order:normal" />
    <path
       transform="matrix(1.4909359,0,0,1.4812109,140.49221,-226.57487)"
       d="m -30.079008,165.08905 0,8.31177 -7.198206,4.15589 -7.198206,-4.15589 0,-8.31177 7.198206,-4.15589 z"
       id="path976"
       style="opacity:1;fill:#1f567d;fill-opacity:1;stroke:#1f567d;stroke-width:1.3458358;stroke-linecap:round;stroke-linejoin:round;stroke-miterlimit:4;stroke-dasharray:none;stroke-dashoffset:0;stroke-opacity:1;paint-order:fill markers stroke" />
    <path
       style="opacity:1;fill:#1f567d;fill-opacity:1;stroke:#1f567d;stroke-width:1.3458358;stroke-linecap:round;stroke-linejoin:round;stroke-miterlimit:4;stroke-dasharray:none;stroke-dashoffset:0;stroke-opacity:1;paint-order:fill markers stroke"
       id="path978"
       d="m -30.079008,165.08905 0,8.31177 -7.198206,4.15589 -7.198206,-4.15589 0,-8.31177 7.198206,-4.15589 z"
       transform="matrix(1.4909359,0,0,1.4812109,167.77717,-226.57487)" />
    <path
       style="opacity:1;fill:#1f567d;fill-opacity:1;stroke:#1f567d;stroke-width:1.3458358;stroke-linecap:round;stroke-linejoin:round;stroke-miterlimit:4;stroke-dasharray:none;stroke-dashoffset:0;stroke-opacity:1;paint-order:fill markers stroke"
       id="path980"
       d="m -30.079008,165.08905 0,8.31177 -7.198206,4.15589 -7.198206,-4.15589 0,-8.31177 7.198206,-4.15589 z"
       transform="matrix(1.4909359,0,0,1.4812109,154.25055,-202.76236)" />
    <path
       transform="matrix(1.4909359,0,0,1.4812109,16.437124,19.7501)"
       d="m -30.079008,165.08905 0,8.31177 -7.198206,4.15589 -7.198206,-4.15589 0,-8.31177 7.198206,-4.15589 z"
       id="path982"
       style="opacity:1;fill:#eef3f6;fill-opacity:1;stroke:#eef3f6;stroke-width:1.3458358;stroke-linecap:round;stroke-linejoin:round;stroke-miterlimit:4;stroke-dasharray:none;stroke-dashoffset:0;stroke-opacity:1;paint-order:fill markers stroke" />
    <path
       transform="matrix(1.4909359,0,0,1.4812109,-25.036438,57.426999)"
       d="m -30.079008,165.08905 0,8.31177 -7.198206,4.15589 -7.198206,-4.15589 0,-8.31177 7.198206,-4.15589 z"
       id="path985"
       style="opacity:1;fill:#eef3f6;fill-opacity:1;stroke:#eef3f6;stroke-width:1.3458358;stroke-linecap:round;stroke-linejoin:round;stroke-miterlimit:4;stroke-dasharray:none;stroke-dashoffset:0;stroke-opacity:1;paint-order:fill markers stroke" />
    <path
       style="opacity:1;fill:#1f567d;fill-opacity:1;stroke:#1f567d;stroke-width:1.3458358;stroke-linecap:round;stroke-linejoin:round;stroke-miterlimit:4;stroke-dasharray:none;stroke-dashoffset:0;stroke-opacity:1;paint-order:fill markers stroke"
       id="path987"
       d="m -30.079008,165.08905 0,8.31177 -7.198206,4.15589 -7.198206,-4.15589 0,-8.31177 7.198206,-4.15589 z"
       transform="matrix(1.4909359,0,0,1.4812109,127.03134,-202.76236)" />
    <path
       style="opacity:1;fill:#eef3f6;fill-opacity:1;stroke:#eef3f6;stroke-width:1.3458358;stroke-linecap:round;stroke-linejoin:round;stroke-miterlimit:4;stroke-dasharray:none;stroke-dashoffset:0;stroke-opacity:1;paint-order:fill markers stroke"
       id="path989"
       d="m -30.079008,165.08905 0,8.31177 -7.198206,4.15589 -7.198206,-4.15589 0,-8.31177 7.198206,-4.15589 z"
       transform="matrix(1.4909359,0,0,1.4812109,276.02728,44.670755)" />
    <path
       transform="matrix(1.4909359,0,0,1.4812109,359.09613,-3.09383)"
       d="m -30.079008,165.08905 0,8.31177 -7.198206,4.15589 -7.198206,-4.15589 0,-8.31177 7.198206,-4.15589 z"
       id="path991"
       style="opacity:1;fill:#eef3f6;fill-opacity:1;stroke:#eef3f6;stroke-width:1.3458358;stroke-linecap:round;stroke-linejoin:round;stroke-miterlimit:4;stroke-dasharray:none;stroke-dashoffset:0;stroke-opacity:1;paint-order:fill markers stroke" />
    <path
       style="opacity:1;fill:#1f567d;fill-opacity:1;stroke:#1f567d;stroke-width:1.3458358;stroke-linecap:round;stroke-linejoin:round;stroke-miterlimit:4;stroke-dasharray:none;stroke-dashoffset:0;stroke-opacity:1;paint-order:fill markers stroke"
       id="path1003"
       d="m -30.079008,165.08905 0,8.31177 -7.198206,4.15589 -7.198206,-4.15589 0,-8.31177 7.198206,-4.15589 z"
       transform="matrix(1.4909359,0,0,1.4812109,181.05471,-202.68717)" />
    <path
       transform="matrix(1.4909359,0,0,1.4812109,208.3397,-202.68717)"
       d="m -30.079008,165.08905 0,8.31177 -7.198206,4.15589 -7.198206,-4.15589 0,-8.31177 7.198206,-4.15589 z"
       id="path1005"
       style="opacity:1;fill:#1f567d;fill-opacity:1;stroke:#1f567d;stroke-width:1.3458358;stroke-linecap:round;stroke-linejoin:round;stroke-miterlimit:4;stroke-dasharray:none;stroke-dashoffset:0;stroke-opacity:1;paint-order:fill markers stroke" />
    <path
       transform="matrix(1.4909359,0,0,1.4812109,194.81307,-178.87463)"
       d="m -30.079008,165.08905 0,8.31177 -7.198206,4.15589 -7.198206,-4.15589 0,-8.31177 7.198206,-4.15589 z"
       id="path1007"
       style="opacity:1;fill:#1f567d;fill-opacity:1;stroke:#1f567d;stroke-width:1.3458358;stroke-linecap:round;stroke-linejoin:round;stroke-miterlimit:4;stroke-dasharray:none;stroke-dashoffset:0;stroke-opacity:1;paint-order:fill markers stroke" />
    <path
       transform="matrix(1.4909359,0,0,1.4812109,167.59384,-178.87463)"
       d="m -30.079008,165.08905 0,8.31177 -7.198206,4.15589 -7.198206,-4.15589 0,-8.31177 7.198206,-4.15589 z"
       id="path1009"
       style="opacity:1;fill:#1f567d;fill-opacity:1;stroke:#1f567d;stroke-width:1.3458358;stroke-linecap:round;stroke-linejoin:round;stroke-miterlimit:4;stroke-dasharray:none;stroke-dashoffset:0;stroke-opacity:1;paint-order:fill markers stroke" />
  </g>
</svg>
