<?xml version="1.0" encoding="UTF-8"?>
<!DOCTYPE svg PUBLIC "-//W3C//DTD SVG 1.1//EN" "http://www.w3.org/Graphics/SVG/1.1/DTD/svg11.dtd">
<!-- Creator: CorelDRAW X8 -->
<svg xmlns="http://www.w3.org/2000/svg" xml:space="preserve" width="285px" height="50px" version="1.1" style="shape-rendering:geometricPrecision; text-rendering:geometricPrecision; image-rendering:optimizeQuality; fill-rule:evenodd; clip-rule:evenodd"
viewBox="0 0 285000 49999"
 xmlns:xlink="http://www.w3.org/1999/xlink">
 <defs>
  <style type="text/css">
   <![CDATA[
    .fil0 {fill:#00599E}
    .fil2 {fill:#616263}
    .fil1 {fill:#67BD00}
   ]]>
  </style>
 </defs>
 <g id="Ebene_x0020_1">
  <metadata id="CorelCorpID_0Corel-Layer"/>
  <g id="_2699023202064">
   <path class="fil0" d="M10010 46743c-1497,0 -10207,0 -10207,0l8194 -46739 10177 -5 -4904 27018c0,0 3590,-6474 11067,-7277 7205,-787 10397,859 10846,1027 5877,2470 5036,8453 5104,8893 203,1895 -2631,17074 -2631,17074l-10136 0c0,0 3438,-16795 114,-18216 -1268,-888 -4946,-1041 -6901,-685 -9260,1396 -10317,16220 -10723,18910z"/>
   <path class="fil1" d="M35350 27814c11892,367 17840,6404 17840,18091l0 838 -9998 0c2321,-17389 -24020,-11057 -28022,0l-92 0c74,-10314 10623,-19224 20272,-18929l0 0z"/>
   <polygon class="fil0" points="76486,15449 76486,29126 73892,29126 73892,23215 67479,23215 67479,29126 64883,29126 64883,15449 67479,15449 67479,21031 73892,21031 73892,15449 "/>
   <path class="fil0" d="M83304 19404c-1465,0 -2321,189 -2568,565 -247,376 -370,1678 -370,3905 0,1650 145,2643 434,2980 288,336 1140,505 2553,505 1353,0 2164,-190 2434,-568 269,-379 403,-1528 403,-3447 0,-1925 -127,-3062 -382,-3413 -255,-351 -1090,-527 -2504,-527zm168 -1868c2088,0 3431,347 4032,1041 600,692 900,2242 900,4650 0,2631 -301,4289 -905,4973 -602,685 -2063,1028 -4381,1028 -2087,0 -3437,-338 -4048,-1015 -612,-675 -918,-2165 -918,-4464 1,-2739 301,-4459 901,-5161 600,-701 2073,-1052 4419,-1052z"/>
   <path class="fil0" d="M96730 25028l2122 0 0 395c0,1600 -282,2633 -849,3102 -566,469 -1818,703 -3755,703 -2199,0 -3552,-371 -4058,-1112 -506,-740 -760,-2721 -760,-5942 0,-1897 344,-3144 1029,-3742 686,-597 2120,-896 4303,-896 1590,0 2650,246 3184,737 534,491 800,1466 800,2924l8 261 -2122 0 0 -294c0,-752 -137,-1233 -413,-1444 -275,-209 -902,-316 -1881,-316 -1312,0 -2100,167 -2365,498 -263,330 -395,1313 -395,2945 0,2201 118,3502 355,3906 236,404 1003,606 2298,606 1050,0 1732,-112 2045,-336 313,-225 470,-718 470,-1481l-16 -514z"/>
   <polygon class="fil0" points="109638,17638 109638,29126 107523,29126 107523,24161 102297,24161 102297,29126 100183,29126 100183,17638 102297,17638 102297,22325 107523,22325 107523,17638 "/>
   <path class="fil0" d="M119868 20987l-2066 0c-11,-106 -17,-184 -17,-235 -48,-646 -188,-1051 -416,-1216 -229,-166 -767,-248 -1616,-248 -1002,0 -1656,95 -1963,285 -309,192 -462,592 -462,1204 0,724 125,1159 375,1305 251,145 1079,258 2483,336 1659,95 2733,340 3221,733 487,392 730,1209 730,2448 0,1528 -286,2514 -856,2959 -572,447 -1832,670 -3781,670 -1753,0 -2916,-219 -3490,-657 -574,-438 -861,-1324 -861,-2660l-9 -420 2058 0 7 243c0,803 137,1293 409,1474 272,178 1014,269 2228,269 948,-1 1552,-104 1813,-311 261,-208 392,-688 392,-1440 0,-555 -99,-924 -298,-1107 -199,-182 -628,-293 -1285,-332l-1169 -75c-1763,-108 -2890,-359 -3380,-759 -489,-398 -735,-1254 -735,-2566 0,-1342 296,-2235 886,-2681 591,-447 1771,-670 3540,-670 1676,0 2805,205 3388,615 583,409 874,1209 874,2399l0 437z"/>
   <path class="fil0" d="M128490 25028l2122 0 0 395c0,1600 -283,2633 -849,3102 -566,469 -1818,703 -3755,703 -2199,0 -3551,-371 -4058,-1112 -506,-740 -760,-2721 -760,-5942 0,-1897 343,-3144 1029,-3742 686,-597 2120,-896 4303,-896 1589,0 2650,246 3184,737 533,491 800,1466 800,2924l8 261 -2122 0 0 -294c0,-752 -137,-1233 -413,-1444 -275,-209 -902,-316 -1882,-316 -1311,0 -2099,167 -2364,498 -263,330 -395,1313 -395,2945 0,2201 118,3502 355,3906 236,404 1003,606 2299,606 1050,0 1731,-112 2044,-336 313,-225 470,-718 470,-1481l-16 -514z"/>
   <polygon class="fil0" points="141398,17638 141398,29126 139283,29126 139283,24161 134057,24161 134057,29126 131943,29126 131943,17638 134057,17638 134057,22325 139283,22325 139283,17638 "/>
   <path class="fil0" d="M150526 17638l2114 0 0 7641c0,1601 -298,2658 -894,3174 -596,516 -1813,775 -3653,775 -1943,0 -3218,-245 -3821,-732 -605,-488 -906,-1518 -906,-3090l0 -7768 2114 0 0 7768c0,848 146,1385 441,1612 294,228 985,341 2074,341 1116,0 1816,-115 2102,-345 286,-230 429,-794 429,-1692l0 -7684z"/>
   <polygon class="fil0" points="156706,17638 156706,27174 161932,27174 161932,29126 154591,29126 154591,17638 "/>
   <polygon class="fil0" points="164895,19472 164895,22435 170120,22435 170120,24043 164895,24043 164895,27292 170455,27292 170455,29126 162780,29126 162780,17638 170406,17638 170406,19472 "/>
   <path class="fil0" d="M187190 15449l0 13677 -3783 0 -3361 -7505c-166,-374 -428,-1028 -784,-1964l-379 -981 -371 -983 -86 0 34 902 26 892 18 1794 0 7845 -2232 0 0 -13677 3783 0 3059 6934c270,614 583,1360 939,2235l449 1111 447 1124 78 0 -26 -883 -26 -882 -16 -1763 0 -7876 2231 0z"/>
   <path class="fil0" d="M193838 19404c-1464,0 -2321,189 -2568,565 -246,376 -369,1678 -369,3905 0,1650 144,2643 433,2980 288,336 1140,505 2555,505 1352,0 2163,-190 2432,-568 269,-379 404,-1528 404,-3447 0,-1925 -128,-3062 -383,-3413 -255,-351 -1090,-527 -2504,-527zm168 -1868c2088,0 3431,347 4032,1041 600,692 900,2242 900,4650 0,2631 -301,4289 -904,4973 -603,685 -2064,1028 -4381,1028 -2087,0 -3437,-338 -4049,-1015 -612,-675 -918,-2165 -918,-4464 1,-2739 301,-4459 901,-5161 600,-701 2073,-1052 4419,-1052z"/>
   <path class="fil0" d="M202282 23420l3130 0c748,0 1242,-133 1487,-400 243,-267 365,-801 365,-1603 0,-820 -105,-1349 -315,-1587 -209,-239 -672,-358 -1385,-358l-3282 0 0 3948zm-2180 5706l0 -11488 5663 0c1409,0 2381,244 2914,732 531,488 798,1371 798,2651 0,1161 -132,1955 -399,2382 -266,426 -811,721 -1637,884l0 76c1275,78 1911,822 1911,2230l0 2533 -2180 0 0 -2095c0,-1184 -584,-1776 -1751,-1776l-3139 0 0 3871 -2180 0z"/>
   <path class="fil0" d="M213082 27292l3106 0c1042,0 1717,-240 2022,-721 309,-479 461,-1537 461,-3177 0,-1693 -139,-2772 -412,-3231 -276,-461 -921,-691 -1936,-691l-3241 0 0 7820zm-2179 1834l0 -11488 5646 0c1605,0 2729,350 3372,1052 642,701 965,1930 965,3686 0,2868 -260,4709 -776,5525 -518,818 -1681,1225 -3493,1225l-5714 0z"/>
   <polygon class="fil0" points="231913,17638 231913,29126 229732,29126 229732,24161 224344,24161 224344,29126 222165,29126 222165,17638 224344,17638 224344,22325 229732,22325 229732,17638 "/>
   <path class="fil0" d="M240068 25314l-1985 -5985 -1953 5985 3938 0zm507 1607l-4960 0 -713 2205 -2308 0 3821 -11488 3275 0 3880 11488 -2264 0 -731 -2205z"/>
   <path class="fil0" d="M251642 17638l2183 0 0 7641c0,1601 -309,2658 -924,3174 -613,516 -1870,775 -3767,775 -2002,0 -3315,-245 -3937,-732 -623,-488 -936,-1518 -936,-3090l0 -7768 2180 0 0 7768c0,848 153,1385 454,1612 304,228 1017,341 2139,341 1152,0 1872,-115 2168,-345 295,-230 440,-794 440,-1692l0 -7684z"/>
   <path class="fil0" d="M264051 20987l-2130 0c-11,-106 -15,-184 -15,-235 -51,-646 -194,-1051 -429,-1216 -237,-166 -794,-248 -1667,-248 -1033,0 -1707,95 -2025,285 -317,192 -476,592 -476,1204 0,724 130,1159 387,1305 258,145 1110,258 2559,336 1712,95 2818,340 3320,733 504,392 754,1209 754,2448 0,1528 -294,2514 -884,2959 -588,447 -1889,670 -3897,670 -1806,0 -3006,-219 -3599,-657 -593,-438 -887,-1324 -887,-2660l-8 -420 2120 0 10 243c0,803 138,1293 419,1474 280,178 1046,269 2298,269 976,-1 1601,-104 1870,-311 269,-208 403,-688 403,-1440 1,-555 -102,-924 -307,-1107 -206,-182 -648,-293 -1325,-332l-1204 -75c-1818,-108 -2980,-359 -3484,-759 -506,-398 -760,-1254 -760,-2566 0,-1342 306,-2235 914,-2681 610,-447 1825,-670 3649,-670 1729,0 2894,205 3494,615 600,409 900,1209 900,2399l0 437z"/>
   <polygon class="fil0" points="267488,19472 267488,22435 272874,22435 272874,24043 267488,24043 267488,27292 273220,27292 273220,29126 265307,29126 265307,17638 273168,17638 273168,19472 "/>
   <path class="fil0" d="M285197 17638l0 11488 -3695 0 -3282 -6303c-164,-315 -420,-865 -766,-1650l-372 -825 -360 -825 -84 0 32 757 27 750 16 1506 0 6590 -2180 0 0 -11488 3693 0 2990 5824c262,516 570,1142 916,1876l438 936 439 941 74 0 -25 -740 -25 -741 -16 -1481 0 -6615 2180 0z"/>
   <path class="fil2" d="M71360 37444l1817 0 0 6369c0,1333 -256,2214 -769,2644 -511,431 -1558,646 -3138,646 -1670,0 -2764,-203 -3282,-611 -520,-406 -779,-1265 -779,-2574l0 -6474 1817 0 0 6474c0,707 126,1154 378,1343 252,189 847,284 1782,284 958,0 1560,-96 1806,-287 246,-191 368,-662 368,-1410l0 -6404z"/>
   <path class="fil2" d="M75092 40313l1592 0 -64 1129 35 7c313,-809 1015,-1213 2105,-1213 1585,0 2378,739 2378,2217l0 4566 -1607 0 0 -4041 0 -252 -35 -471c-74,-499 -468,-750 -1179,-750 -1079,0 -1619,512 -1619,1537l0 3977 -1606 0 0 -6706z"/>
   <path class="fil2" d="M85077 40313l0 6706 -1607 0 0 -6706 1607 0zm0 -2869l0 1340 -1607 0 0 -1340 1607 0z"/>
   <path class="fil2" d="M93005 40313l-1921 6706 -2511 0 -2020 -6706 1704 0 884 3093c122,430 234,847 337,1248l161 625 162 624 34 0 148 -624 148 -618c112,-467 217,-883 315,-1248l828 -3100 1731 0z"/>
   <path class="fil2" d="M98825 42971l-7 -267c0,-532 -92,-878 -278,-1038 -184,-158 -586,-237 -1202,-237 -599,0 -989,95 -1168,287 -180,191 -270,610 -270,1255l2925 0zm-14 1901l1613 0 0 259c0,1310 -983,1965 -2946,1965 -1333,0 -2205,-227 -2616,-681 -412,-453 -618,-1415 -618,-2883 0,-1304 215,-2181 645,-2630 431,-449 1270,-673 2519,-673 1197,0 1999,218 2405,655 408,438 611,1297 611,2579l0 490 -4538 0c-9,150 -14,248 -14,295 0,659 102,1098 305,1318 203,220 609,330 1216,330 590,0 974,-64 1151,-193 178,-129 267,-405 267,-831z"/>
   <path class="fil2" d="M102567 40313l1606 0 -98 940 35 7c384,-702 987,-1053 1810,-1053 1179,0 1768,745 1768,2232l0 470 -1515 0c18,-183 28,-303 28,-358 0,-716 -279,-1074 -835,-1074 -795,0 -1193,530 -1193,1592l0 3950 -1606 0 0 -6706z"/>
   <path class="fil2" d="M114936 42157l-1570 0c-10,-55 -17,-98 -22,-126 -32,-322 -125,-523 -276,-602 -152,-81 -521,-120 -1106,-120 -836,0 -1255,271 -1255,813 0,370 74,589 221,660 147,70 647,127 1497,168 1146,57 1892,208 2239,456 346,248 518,756 518,1522 0,819 -230,1386 -691,1701 -461,315 -1287,474 -2479,474 -1146,0 -1929,-143 -2350,-429 -421,-285 -631,-817 -631,-1598l0 -169 1669 0c-23,93 -37,169 -42,224 -66,595 393,891 1375,891 1015,0 1521,-294 1521,-883 0,-566 -317,-850 -953,-850 -1436,0 -2381,-134 -2837,-406 -456,-270 -684,-835 -684,-1690 0,-767 208,-1286 624,-1558 416,-270 1215,-406 2399,-406 1117,0 1870,131 2256,393 385,261 577,774 577,1535z"/>
   <path class="fil2" d="M118813 40313l0 6706 -1607 0 0 -6706 1607 0zm0 -2869l0 1340 -1607 0 0 -1340 1607 0z"/>
   <path class="fil2" d="M125480 40313l0 1221 -2582 0 0 3366c0,622 236,933 709,933 520,0 778,-377 778,-1129l0 -267 1369 0 0 337c0,309 -10,572 -28,792 -90,1024 -852,1537 -2288,1537 -1430,0 -2146,-657 -2146,-1972l0 -3597 -869 0 0 -1221 869 0 0 -1502 1606 0 0 1502 2582 0z"/>
   <path class="fil2" d="M132919 40313l-1760 7126c-249,1010 -556,1689 -924,2038 -367,348 -954,523 -1763,523 -183,0 -372,-11 -568,-28l0 -1186c140,9 256,14 351,14 682,0 1115,-594 1296,-1781l-820 0 -2195 -6706 1726 0 841 2841 421 1424c23,93 89,331 196,715l204 708 35 0 146 -708c76,-365 124,-603 148,-715l330 -1424 646 -2841 1690 0z"/>
   <path class="fil2" d="M141213 41505c-669,0 -1094,121 -1276,362 -183,241 -274,803 -274,1687 0,1009 86,1641 260,1893 172,253 605,379 1297,379 668,0 1091,-133 1266,-399 176,-267 263,-907 263,-1923 0,-855 -91,-1402 -274,-1641 -182,-238 -602,-358 -1262,-358zm14 -1269c1295,0 2143,206 2546,621 403,413 604,1286 604,2620 0,1486 -197,2461 -590,2924 -393,463 -1220,695 -2482,695 -1370,0 -2259,-215 -2663,-646 -405,-430 -607,-1376 -607,-2841 0,-1407 199,-2321 597,-2743 397,-420 1262,-630 2595,-630z"/>
   <path class="fil2" d="M146793 47019l0 -5485 -947 0 0 -1221 947 0 0 -716c0,-851 183,-1439 551,-1764 366,-324 1031,-487 1995,-487 164,0 391,7 680,21l0 1255c-220,-50 -406,-76 -561,-76 -706,0 -1060,350 -1060,1052l2 715 1669 0 0 1221 -1669 0 0 5485 -1607 0z"/>
   <path class="fil2" d="M161459 43841l-1655 -4987 -1627 4987 3282 0zm422 1340l-4132 0 -596 1838 -1922 0 3184 -9575 2729 0 3234 9575 -1888 0 -609 -1838z"/>
   <path class="fil2" d="M169067 41498c-613,0 -1014,139 -1200,414 -187,276 -281,861 -281,1754 0,869 101,1447 302,1732 201,285 609,428 1227,428 627,0 1034,-136 1220,-408 188,-270 281,-852 281,-1745 0,-917 -94,-1508 -284,-1775 -189,-266 -611,-400 -1265,-400zm-3164 -1185l1634 0 -64 996 36 6c388,-724 1110,-1086 2167,-1086 978,0 1650,242 2018,726 366,483 550,1367 550,2648 0,1337 -183,2254 -548,2749 -364,496 -1041,744 -2027,744 -1052,0 -1740,-351 -2062,-1053l-28 0 0 3851 -1676 0 0 -9581z"/>
   <path class="fil2" d="M177494 41498c-613,0 -1012,139 -1200,414 -187,276 -280,861 -280,1754 0,869 100,1447 301,1732 201,285 611,428 1227,428 628,0 1034,-136 1222,-408 186,-270 280,-852 280,-1745 0,-917 -95,-1508 -284,-1775 -190,-266 -612,-400 -1266,-400zm-3163 -1185l1633 0 -62 996 34 6c389,-724 1112,-1086 2167,-1086 978,0 1650,242 2018,726 367,483 550,1367 550,2648 0,1337 -182,2254 -547,2749 -365,496 -1040,744 -2026,744 -1053,0 -1740,-351 -2063,-1053l-28 0 0 3851 -1676 0 0 -9581z"/>
   <polygon class="fil2" points="184363,37444 184363,47019 182758,47019 182758,37444 "/>
   <path class="fil2" d="M188295 40313l0 6706 -1606 0 0 -6706 1606 0zm0 -2869l0 1340 -1606 0 0 -1340 1606 0z"/>
   <path class="fil2" d="M194956 42971l-8 -267c0,-532 -92,-878 -276,-1038 -185,-158 -587,-237 -1203,-237 -599,0 -988,95 -1169,287 -179,191 -270,610 -270,1255l2926 0zm-15 1901l1614 0 0 259c0,1310 -983,1965 -2946,1965 -1332,0 -2205,-227 -2616,-681 -412,-453 -618,-1415 -618,-2883 0,-1304 215,-2181 645,-2630 431,-449 1270,-673 2518,-673 1198,0 2000,218 2406,655 408,438 611,1297 611,2579l0 490 -4538 0c-10,150 -14,248 -14,295 0,659 101,1098 304,1318 204,220 610,330 1217,330 589,0 973,-64 1150,-193 179,-129 267,-405 267,-831z"/>
   <path class="fil2" d="M201461 41505c-599,0 -987,128 -1164,383 -178,254 -267,802 -267,1644 0,973 89,1599 267,1881 178,280 575,420 1192,420 645,0 1059,-138 1238,-415 179,-275 271,-911 271,-1907 0,-822 -101,-1363 -299,-1619 -199,-258 -612,-387 -1238,-387zm3149 -4061l0 9575 -1563 0 55 -1081 -27 -7c-313,781 -997,1172 -2049,1172 -1061,0 -1764,-242 -2108,-727 -344,-484 -515,-1467 -515,-2949 0,-1198 184,-2028 554,-2493 370,-466 1027,-698 1970,-698 1095,0 1778,346 2049,1038l28 -7 0 -3823 1606 0z"/>
   <path class="fil2" d="M218429 40236l-1775 0c-10,-89 -14,-155 -14,-196 -42,-539 -162,-877 -358,-1014 -196,-138 -659,-208 -1389,-208 -860,0 -1422,81 -1687,239 -264,159 -394,494 -394,1003 0,603 106,966 321,1088 214,121 926,215 2132,281 1427,79 2348,282 2768,609 417,327 626,1008 626,2041 0,1272 -245,2094 -736,2466 -490,371 -1573,558 -3246,558 -1508,0 -2507,-183 -2999,-547 -495,-365 -741,-1104 -741,-2217l-7 -351 1767 0 7 203c0,670 118,1079 351,1227 235,150 874,226 1916,226 813,0 1331,-87 1556,-260 225,-173 338,-573 338,-1200 0,-463 -86,-770 -257,-922 -172,-151 -539,-244 -1103,-277l-1004 -63c-1517,-89 -2483,-299 -2905,-631 -420,-332 -629,-1045 -629,-2139 0,-1117 252,-1863 759,-2235 508,-372 1520,-557 3042,-557 1438,0 2410,171 2909,512 502,342 752,1008 752,1999l0 365z"/>
   <path class="fil2" d="M224892 44458l1600 0 0 232 -100 1017c-196,926 -1154,1389 -2876,1389 -1260,0 -2102,-228 -2517,-684 -417,-456 -625,-1374 -625,-2753 0,-1347 208,-2254 625,-2722 415,-467 1225,-701 2426,-701 1161,0 1945,170 2358,509 411,339 618,983 618,1932l-1594 0c0,-782 -451,-1172 -1352,-1172 -641,0 -1044,124 -1209,371 -161,248 -243,857 -243,1824 0,937 89,1524 268,1765 181,240 623,361 1323,361 552,0 905,-83 1063,-249 157,-166 235,-539 235,-1119z"/>
   <path class="fil2" d="M230022 40313l0 6706 -1606 0 0 -6706 1606 0zm0 -2869l0 1340 -1606 0 0 -1340 1606 0z"/>
   <path class="fil2" d="M236682 42971l-6 -267c0,-532 -92,-878 -276,-1038 -187,-158 -586,-237 -1204,-237 -600,0 -987,95 -1168,287 -180,191 -272,610 -272,1255l2926 0zm-13 1901l1612 0 0 259c0,1310 -981,1965 -2947,1965 -1331,0 -2203,-227 -2615,-681 -410,-453 -617,-1415 -617,-2883 0,-1304 216,-2181 644,-2630 432,-449 1270,-673 2520,-673 1197,0 1998,218 2406,655 406,438 609,1297 609,2579l0 490 -4538 0c-9,150 -14,248 -14,295 0,659 103,1098 306,1318 203,220 608,330 1218,330 588,0 971,-64 1149,-193 177,-129 267,-405 267,-831z"/>
   <path class="fil2" d="M240369 40313l1591 0 -64 1129 37 7c313,-809 1015,-1213 2102,-1213 1588,0 2379,739 2379,2217l0 4566 -1605 0 0 -4041 0 -252 -34 -471c-76,-499 -470,-750 -1179,-750 -1081,0 -1622,512 -1622,1537l0 3977 -1605 0 0 -6706z"/>
   <path class="fil2" d="M253004 44458l1600 0 0 232 -98 1017c-196,926 -1156,1389 -2877,1389 -1262,0 -2100,-228 -2517,-684 -416,-456 -625,-1374 -625,-2753 0,-1347 209,-2254 625,-2722 417,-467 1224,-701 2426,-701 1160,0 1946,170 2357,509 410,339 618,983 618,1932l-1593 0c0,-782 -450,-1172 -1353,-1172 -641,0 -1044,124 -1207,371 -163,248 -245,857 -245,1824 0,937 88,1524 269,1765 179,240 622,361 1322,361 552,0 908,-83 1063,-249 157,-166 235,-539 235,-1119z"/>
   <path class="fil2" d="M260864 42971l-7 -267c0,-532 -93,-878 -276,-1038 -187,-158 -586,-237 -1204,-237 -600,0 -987,95 -1168,287 -180,191 -271,610 -271,1255l2926 0zm-14 1901l1612 0 0 259c0,1310 -980,1965 -2946,1965 -1332,0 -2202,-227 -2616,-681 -410,-453 -618,-1415 -618,-2883 0,-1304 217,-2181 645,-2630 431,-449 1271,-673 2521,-673 1196,0 1997,218 2405,655 406,438 609,1297 609,2579l0 490 -4538 0c-9,150 -14,248 -14,295 1,659 103,1098 306,1318 203,220 609,330 1218,330 588,0 971,-64 1149,-193 178,-129 267,-405 267,-831z"/>
   <path class="fil2" d="M270146 42157l-1571 0c-9,-55 -16,-98 -21,-126 -32,-322 -125,-523 -276,-602 -153,-81 -522,-120 -1106,-120 -836,0 -1254,271 -1254,813 1,370 73,589 220,660 147,70 647,127 1497,168 1147,57 1892,208 2240,456 343,248 517,756 517,1522 0,819 -230,1386 -691,1701 -461,315 -1286,474 -2478,474 -1147,0 -1930,-143 -2352,-429 -419,-285 -630,-817 -630,-1598l0 -169 1669 0c-24,93 -37,169 -42,224 -66,595 392,891 1375,891 1015,0 1521,-294 1521,-883 0,-566 -317,-850 -953,-850 -1435,0 -2381,-134 -2837,-406 -456,-270 -684,-835 -684,-1690 0,-767 208,-1286 625,-1558 415,-270 1216,-406 2399,-406 1117,0 1867,131 2255,393 386,261 577,774 577,1535z"/>
  </g>
 </g>
</svg>
