<svg xmlns="http://www.w3.org/2000/svg" width="164.113" height="64" viewBox="0 0 164.113 64"><path d="M33.246,77.375v.8C20.035,77.7,14.17,69.218,14.17,58.982A19.609,19.609,0,0,1,18.356,46.2c1.575,4.51,5.292,8.348,11.608,12.233v.544C29.964,72.176,30.039,76.657,33.246,77.375ZM51.807,15.509c-6.183-1.806-9.842-1.256-9.842-1.256s6.368,3.144,6.884,7.526-1.106,6.849-3.514,9.663l8.227,2.131a7.839,7.839,0,0,1-3.891,4.817A19.8,19.8,0,0,1,40.987,40.6a49.025,49.025,0,0,1-6.339,0s3.474,1.685,12.025,7.712a30.427,30.427,0,0,1,5.135,4.244s11.978-7.688,11.579-20.338S54.019,16.152,51.807,15.509ZM55.1,60.389a8.152,8.152,0,0,0-.77-1.853C50.58,52.428,37.808,44.572,36.413,43.825a9.385,9.385,0,0,1-4.365-4.632,9.263,9.263,0,0,1,1.581-.307c1.129-.151,3.688.151,10.085-.307s7.526-4.053,7.526-4.053-7-1.737-8.73-2.177S36.8,26.619,32.627,26.1a5.931,5.931,0,0,1-3.358-1.3l.521-7.011C23.78,22.618,19.71,31.216,19.033,38.916S22.044,51.49,30.919,56.828s12.795,8.991,13.258,14.254-5.043,6.172-5.043,6.172v.839c10.809,0,16.789-5.975,16.789-13.125A14.068,14.068,0,0,0,55.1,60.389Z" transform="translate(-14.17 -14.174)" fill="#008cc2"/><path d="M283.1,110.827h.845L290.221,115v-2.97l-1.019-.139v-1.3l2.316.127v6.368h-.88l-6.229-4.157v2.709l1.013.139v1.3l-2.316-.127Z" transform="translate(-127.405 -54.77)" fill="#008cc2"/><path d="M284.092,90.4l.087.7,7.306,1.737v1.586l-5.569,1.534v.035l5.552,1.569v1.586l-7.306,1.737-.087.7h-1.019V98.442h1.019l.133.782,4.632-.978V98.21l-5.789-1.6V95.379l5.789-1.609v-.035l-4.632-.973-.133.776h-1.019V90.4Z" transform="translate(-127.384 -46.269)" fill="#008cc2"/><path d="M287.8,78.825v2.895h2.4V78.981l-1.007-.075V77.58h2.316v6.75H290.5l-.174-.909h-6.05l-.174.909H283.09V77.592h2.316v1.314l-1.007.075v2.733h2.113V78.819Z" transform="translate(-127.4 -40.871)" fill="#008cc2"/><path d="M284.1,73.432H283.08V69.9H284.1l.168.915h6.038l.174-.915h1.013v3.532h-1.013l-.174-.915h-6.038Z" transform="translate(-127.396 -37.638)" fill="#a3c13f"/><path d="M284.123,65.8H283.11V62.27h1.013l.174.915h6.038l.174-.915h1.013V65.8h-1.013l-.174-.915H284.3Z" transform="translate(-127.409 -34.425)" fill="#a3c13f"/><path d="M117.919,67.1l-10.3,24.738h10.3v4.927H102.05V91.935l10.3-24.738h-9.807V62.27h15.377Z" transform="translate(-51.172 -34.425)" fill="#008cc2"/><path d="M142.527,61.59c5.326,0,8.233,3.155,8.233,8.684V88.221c0,5.523-2.895,8.684-8.233,8.684S134.3,93.75,134.3,88.221V70.274C134.3,64.722,137.206,61.59,142.527,61.59Zm0,30.354c1.737,0,2.808-.932,2.808-3.4V69.933c0-2.461-1.083-3.4-2.808-3.4s-2.808.938-2.808,3.4v18.63c0,2.449,1.083,3.369,2.808,3.369Z" transform="translate(-64.751 -34.139)" fill="#008cc2"/><path d="M186.3,92.526V87.107c0-3.2-1.088-4.383-3.549-4.383h-1.876V96.763H175.46V62.27h8.18c5.616,0,8.036,2.611,8.036,7.932v2.715c0,3.549-1.158,5.865-3.549,6.994,2.709,1.158,3.6,3.746,3.6,7.347v5.32a10.443,10.443,0,0,0,.579,4.186h-5.529A11.29,11.29,0,0,1,186.3,92.526Zm-5.425-14.734H183c2.021,0,3.254-.886,3.254-3.642v-3.4c0-2.461-.834-3.549-2.762-3.549h-2.611Z" transform="translate(-82.082 -34.425)" fill="#008cc2"/><path d="M221.334,92.526V87.107c0-3.2-1.083-4.383-3.549-4.383h-1.87V96.763H210.49V62.27h8.18c5.622,0,8.036,2.611,8.036,7.932v2.715c0,3.549-1.158,5.865-3.549,6.994,2.709,1.158,3.6,3.746,3.6,7.347v5.32a10.342,10.342,0,0,0,.579,4.186h-5.523A10.932,10.932,0,0,1,221.334,92.526Zm-5.419-14.734h2.119c2.021,0,3.254-.886,3.254-3.642v-3.4c0-2.461-.839-3.549-2.762-3.549h-2.611Z" transform="translate(-96.832 -34.425)" fill="#008cc2"/><path d="M252.637,61.59c5.326,0,8.233,3.155,8.233,8.684V88.221c0,5.523-2.895,8.684-8.233,8.684s-8.227-3.155-8.227-8.684V70.274C244.41,64.722,247.316,61.59,252.637,61.59Zm0,30.354c1.737,0,2.808-.932,2.808-3.4V69.933c0-2.461-1.083-3.4-2.808-3.4s-2.808.938-2.808,3.4v18.63c0,2.449,1.083,3.369,2.808,3.369Z" transform="translate(-111.114 -34.139)" fill="#008cc2"/><path d="M168.271,118.861H165V114.75h3.294Z" transform="translate(-77.678 -56.522)" fill="#008cc2"/></svg>